<?xml version="1.0" encoding="UTF-8"?>
<!DOCTYPE svg PUBLIC "-//W3C//DTD SVG 1.1//EN" "http://www.w3.org/Graphics/SVG/1.1/DTD/svg11.dtd">
<!-- Creator: CorelDRAW 2021 (64-Bit) -->
<svg xmlns="http://www.w3.org/2000/svg" xml:space="preserve" width="232.415mm" height="66.8296mm" version="1.1" style="shape-rendering:geometricPrecision; text-rendering:geometricPrecision; image-rendering:optimizeQuality; fill-rule:evenodd; clip-rule:evenodd"
viewBox="0 0 16356.45 4703.2"
 xmlns:xlink="http://www.w3.org/1999/xlink"
 xmlns:xodm="http://www.corel.com/coreldraw/odm/2003">
 <defs>
  <style type="text/css">
   <![CDATA[
    .str0 {stroke:#9BD9D8;stroke-width:5.36;stroke-miterlimit:22.9256}
    .fil8 {fill:#9AD2CF}
    .fil0 {fill:white}
    .fil7 {fill:black;fill-rule:nonzero}
    .fil2 {fill:#9BD9D8;fill-rule:nonzero}
    .fil5 {fill:#9DD0D1;fill-rule:nonzero}
    .fil6 {fill:#C8ACE6;fill-rule:nonzero}
    .fil3 {fill:#D2ABEE;fill-rule:nonzero}
    .fil1 {fill:#EBABC3;fill-rule:nonzero}
    .fil4 {fill:#F7C5A2;fill-rule:nonzero}
   ]]>
  </style>
 </defs>
 <g id="Capa_x0020_1">
  <metadata id="CorelCorpID_0Corel-Layer"/>
  <g id="_2027462239696">
   <g>
    <path class="fil0" d="M13798.73 692.19c61.07,-195.61 188.02,-369.38 365.24,-484.59 222.4,-144.57 508.73,-189.12 759.44,-116.79 21.86,-9.86 44.34,-19.19 67.44,-27.98 311.51,-118.59 680.17,-66.17 948.52,130.78 425.59,312.36 527.1,866.39 297.08,1296.81 21.58,93.85 26.89,192.22 14.11,292.08 -35.1,274.48 -168.4,494.1 -406.63,636.33 -26.35,15.72 -52.91,29.85 -79.64,42.43 -3.28,56.62 -8.83,114.33 -16.71,173.08 -2.75,20.53 -6.68,50.78 -7.88,78.01 110.82,155.77 174.05,286.22 174.05,503.76 0,114.47 -20.82,223.48 -59.3,322.72 31.18,38.65 58.31,81.76 81.35,129.29 78.17,161.27 87.24,328.29 26.98,497.08l-37.65 105.44c-93.16,260.91 -328.99,427.13 -606.04,427.13l-242.1 0c-40.71,0 -80.53,-3.81 -119.17,-11.09 -38.64,7.28 -78.46,11.09 -119.17,11.09l-119.69 0c-19.14,0 -38.08,-0.85 -56.79,-2.5 -18.72,1.65 -37.67,2.5 -56.8,2.5l-100.67 0c-39.91,0 -79,-3.67 -116.94,-10.68 -37.95,7 -77.03,10.68 -116.94,10.68l-128.51 0c-62.18,0 -122.35,-8.9 -179.29,-25.48 -73.1,20.68 -148.8,30.92 -225.12,30.92 -105.47,0 -207.47,-19.57 -301.86,-57.04 -95.42,37.63 -198.26,57.04 -304.19,57.04 -97.96,0 -192.99,-16.49 -281.8,-48.38 -87.57,32.13 -181.02,48.38 -276.56,48.38 -32.15,0 -64.21,-1.86 -95.99,-5.61 -5.13,0.12 -10.29,0.18 -15.45,0.18l-16.97 0c-74.8,0 -146.74,-12.48 -213.67,-35.65 -66.17,23.1 -137.21,35.65 -211.09,35.65l-119.69 0c-19.14,0 -38.08,-0.85 -56.79,-2.5 -18.73,1.65 -37.67,2.5 -56.8,2.5l-100.67 0c-39.91,0 -79,-3.67 -116.94,-10.68 -37.95,7 -77.03,10.68 -116.94,10.68l-128.51 0c-40.21,0 -79.57,-3.72 -117.77,-10.84 -38.2,7.12 -77.57,10.84 -117.77,10.84l-76.68 0c-21.67,0 -43.03,-0.96 -64.03,-2.88 -20.1,1.9 -40.45,2.88 -61.02,2.88l-128.01 0c-48.52,0 -95.8,-5.41 -141.3,-15.68 -46.51,10.31 -94.95,15.68 -144.73,15.68l-284.19 0c-45.58,0 -90.07,-4.79 -133.01,-13.87 -43.94,9.13 -89.53,13.87 -136.29,13.87l-242.1 0c-48.25,0 -95.3,-5.36 -140.56,-15.51 -46.29,10.2 -94.47,15.51 -143.98,15.51l-284.19 0c-68.26,0 -134.08,-10.73 -195.89,-30.56 -61.82,19.84 -127.65,30.56 -195.9,30.56l-129.98 0c-40.61,0 -80.37,-3.8 -118.92,-11.05 -38.55,7.25 -78.31,11.05 -118.92,11.05l-119.7 0c-19.13,0 -38.07,-0.85 -56.79,-2.5 -18.73,1.65 -37.67,2.5 -56.8,2.5l-100.67 0c-63.98,0 -125.83,-9.42 -184.24,-26.95 -58.41,17.52 -120.26,26.95 -184.24,26.95l-129.98 0c-354.44,0 -643.53,-289.08 -643.53,-643.52l0 -20.28c0,-1.45 0,-2.89 0.01,-4.33 -62.8,15.2 -128.9,23.25 -197.52,23.25l-452.17 0c-119.16,0 -227.64,-22.86 -323.82,-64.18 -153.7,66.87 -321.75,104.29 -500.3,104.29 -255.58,0 -469.56,-79.03 -635.45,-214.99 -227.43,136.92 -503.22,211.34 -804.95,211.34 -237.81,0 -457.44,-43.99 -652.85,-124.85 -107.44,56.28 -232.07,88.39 -368.21,88.39l-700.14 0c-198.68,0 -388.86,-69.35 -540.83,-187.71 -151.76,118.13 -341.04,187.71 -538.55,187.71l-390.19 0c-527.74,0 -881.07,-481.65 -734.45,-984.2 1.96,-6.69 3.71,-12.36 5.87,-18.99 108.94,-334.57 413.93,-520.18 530.92,-888.82l313.41 -987.59c42.12,-143.89 51.09,-269.42 110.58,-420.95 148.32,-377.82 466.12,-622.95 882.24,-622.95l116.69 0c479.69,0 811,334.84 883.61,794.77 13.8,87.41 41.09,177.88 64.01,264.9 275.3,-219.54 634.83,-344.94 1047.06,-344.94 252.28,0 517.55,47.23 743.73,165.71 80.95,-23.86 166.95,-38.66 255.89,-44.15 42.75,-2.64 110.38,-13.17 150.22,-27.14 3.27,-1.29 6.3,-2.43 9.75,-3.71 283.07,-104.28 545.33,-72.25 743.43,55.32 58.12,-12.54 118.39,-20.73 180.11,-24.5 42.58,-2.6 110.03,-13.16 149.7,-27.09 3.29,-1.3 6.33,-2.45 9.79,-3.73 278.63,-102.65 537.11,-73.23 734.06,49.38 223.61,-103.56 480.08,-140.1 728.22,-140.1 366.64,0 680.68,83.55 929.99,235.66 126.71,-65.96 274.16,-104.44 430.64,-114.1 42.77,-2.64 110.41,-13.17 150.27,-27.15 3.25,-1.27 6.28,-2.41 9.72,-3.69 199.73,-73.57 389.07,-79.29 552.85,-31.48 109.53,-38.43 228.12,-59.24 355.16,-59.24 226.93,0 428.95,67.78 591.47,184.15 223.02,-118.27 483.93,-184.15 772.35,-184.15 83.08,0 166.85,5.88 249.86,17.65 73.69,-396.59 418.36,-625.28 833.63,-650.93 47.41,-2.93 120,-14.6 166.11,-29.5 500.19,-184.69 937.87,61.46 1064.04,510.85z"/>
   </g>
   <g>
    <path class="fil1" d="M1395.02 2315.41l302.67 -948.11 255.25 948.11 -557.92 0zm846 -1290.89c-25.53,-156.8 -98.46,-251.61 -247.97,-251.61l-116.69 0c-320.89,0 -317.25,393.82 -379.24,594.39l-313.6 988.21c-164.1,503.23 -481.34,736.61 -532.4,893.41 -25.53,87.52 14.59,160.45 116.69,160.45l390.19 0c98.46,0 193.27,-72.93 222.44,-160.45 43.76,-142.22 -123.98,-342.77 -40.11,-743.9l656.38 0c83.87,423 -25.53,601.68 18.23,743.9 25.53,87.52 120.34,160.45 222.44,160.45l700.14 0c102.1,0 142.22,-72.93 116.69,-160.45 -47.41,-156.8 -328.19,-357.36 -463.12,-867.88l-266.2 -1002.81c-25.53,-102.1 -65.64,-233.38 -83.87,-353.72z"/>
    <path class="fil2 str0" d="M4749.88 2745.71c3.65,-134.93 -21.88,-167.74 -47.41,-185.98 -51.06,-21.88 -113.05,18.23 -145.87,123.98 -51.05,149.51 -185.97,269.85 -364.65,269.85 -215.15,0 -401.12,-182.33 -536.05,-495.93 -171.39,-382.89 -160.44,-725.67 69.29,-784.01 156.8,-43.76 288.08,72.93 295.38,284.43 10.94,306.31 273.49,320.89 444.88,222.44 211.5,-123.98 218.79,-382.89 65.63,-532.39 -109.39,-102.11 -309.96,-160.45 -543.34,-160.45 -590.74,0 -980.92,375.6 -980.92,980.92 0,601.69 390.18,977.28 951.75,977.28 474.05,0 773.07,-266.2 791.31,-700.14z"/>
    <path class="fil3" d="M5537.53 2384.7c0,-280.79 72.94,-481.35 72.94,-663.67 0,-123.99 -32.82,-258.91 -240.68,-182.33 -83.87,32.82 -226.08,61.99 -342.77,69.29 -178.68,10.94 -244.32,65.64 -244.32,167.74 0,200.56 226.08,149.51 226.08,619.91 0,393.83 -102.1,1053.86 390.19,1053.86 251.61,0 510.52,-164.1 667.32,-485 -7.29,76.58 -14.59,142.22 -14.59,200.56 0,171.39 69.29,244.32 171.39,244.32l452.18 0c102.1,0 167.74,-72.93 167.74,-182.33 0,-193.27 -226.09,-361.01 -226.09,-842.35 0,-280.79 76.58,-481.35 76.58,-663.67 0,-123.99 -32.82,-258.91 -240.67,-182.33 -83.87,32.82 -226.08,61.99 -342.77,69.29 -182.33,10.94 -244.32,65.64 -244.32,167.74 0,200.56 222.44,149.51 222.44,820.48 0,18.23 0,36.46 0,54.7 -94.81,280.79 -251.62,320.9 -324.55,320.9 -207.86,0 -226.09,-328.19 -226.09,-587.1z"/>
    <path class="fil4" d="M7988.04 2920.74c-29.17,116.69 -94.81,185.98 -182.33,185.98 -105.75,0 -167.74,-105.75 -167.74,-266.2 0,-288.08 185.98,-371.95 386.54,-514.17 -3.65,196.92 -32.82,408.42 -36.47,594.39zm10.94 244.32c25.53,145.86 87.52,244.32 237.03,244.32l371.95 0c102.1,0 167.74,-72.93 167.74,-193.27 0,-182.33 -233.38,-138.57 -160.45,-667.32 87.52,-667.33 -222.44,-1061.15 -922.58,-1061.15 -215.15,0 -477.7,36.46 -605.33,189.62 -102.1,127.63 -149.51,379.24 65.64,503.22 164.1,98.46 430.29,83.87 441.23,-222.44 7.3,-211.5 134.93,-288.08 211.5,-288.08 113.05,0 193.27,185.97 215.15,477.7 -295.37,273.49 -1097.61,226.08 -1097.61,794.95 0,299.02 226.09,503.23 554.27,503.23 251.62,0 419.36,-123.99 521.46,-280.79z"/>
    <path class="fil1" d="M9016.37 3409.38l641.79 0c102.1,0 171.39,-72.93 171.39,-182.33 0,-193.27 -226.08,-361.01 -226.08,-842.35 0,-54.7 3.65,-98.46 7.29,-145.86 36.47,-200.56 102.1,-273.5 175.04,-273.5 69.29,0 109.39,54.7 127.63,120.34 40.11,127.63 153.15,178.68 247.96,178.68 185.98,3.65 324.55,-175.04 324.55,-390.19 0,-178.68 -98.46,-386.53 -364.65,-386.53 -189.62,0 -339.14,113.05 -452.17,331.84 3.65,-32.82 7.29,-69.29 7.29,-98.46 0,-123.99 -32.82,-258.91 -240.67,-182.33 -83.87,32.82 -226.09,61.99 -342.78,69.29 -178.68,10.94 -244.32,65.64 -244.32,167.74 0,200.56 226.09,149.51 226.09,619.91 0,470.41 -226.09,638.15 -226.09,831.42 0,109.4 69.29,182.33 167.74,182.33z"/>
    <path class="fil5" d="M11215.25 2512.33c-7.29,-18.23 -14.58,-32.82 -21.88,-54.7 -171.39,-382.89 -160.44,-725.67 69.29,-784.01 156.8,-43.76 291.73,72.93 291.73,342.77 0,185.98 -69.29,455.82 -339.14,495.93zm1072.09 233.38c3.65,-134.93 -21.88,-167.74 -47.41,-185.98 -51.06,-21.88 -113.05,18.23 -145.87,123.98 -51.05,149.51 -185.97,269.85 -364.65,269.85 -175.03,0 -328.19,-116.69 -455.82,-328.19 791.3,-18.23 937.16,-463.12 937.16,-663.67 0,-324.55 -379.24,-474.05 -725.66,-474.05 -550.64,0 -940.82,375.6 -940.82,980.92 0,601.69 390.18,977.28 951.75,977.28 474.05,0 773.07,-266.2 791.31,-700.14z"/>
    <path class="fil6" d="M12531.67 3409.38l641.79 0c102.11,0 171.39,-72.93 171.39,-182.33 0,-193.27 -226.08,-361.01 -226.08,-1320.05 0,-554.28 72.93,-758.49 72.93,-940.82 0,-123.98 -32.82,-258.91 -240.67,-178.68 -83.87,29.18 -226.09,58.35 -342.78,65.64 -178.68,10.94 -244.32,65.64 -244.32,171.39 0,200.56 226.09,145.86 226.09,995.51 0,846 -226.09,1013.75 -226.09,1207.01 0,109.4 69.29,182.33 167.74,182.33z"/>
    <path class="fil1" d="M14482.58 2920.74c-29.17,116.69 -94.81,185.98 -182.33,185.98 -105.75,0 -167.74,-105.75 -167.74,-266.2 0,-288.08 185.98,-371.95 386.54,-514.17 -3.65,196.92 -32.82,408.42 -36.47,594.39zm10.94 244.32c25.53,145.86 87.52,244.32 237.03,244.32l371.95 0c102.1,0 167.74,-72.93 167.74,-193.27 0,-182.33 -233.38,-138.57 -160.45,-667.32 87.52,-667.33 -222.44,-1061.15 -922.58,-1061.15 -215.15,0 -477.7,36.46 -605.33,189.62 -102.1,127.63 -149.51,379.24 65.64,503.22 164.1,98.46 430.29,83.87 441.23,-222.44 7.3,-211.5 134.93,-288.08 211.5,-288.08 113.05,0 193.27,185.97 215.15,477.7 -295.37,273.49 -1097.61,226.08 -1097.61,794.95 0,299.02 226.09,503.23 554.27,503.23 251.62,0 419.36,-123.99 521.46,-280.79z"/>
    <path class="fil7" d="M7516.3 3717.67l133.04 0c40.36,0 68.2,2.55 83.52,7.74 19.11,6.18 34.93,16.64 47.45,31.47 12.44,14.91 18.7,33.77 18.7,56.67 0,19.53 -4.78,36.41 -14.25,50.66 -11.45,17.05 -25.37,29.24 -41.68,36.41 -16.31,7.17 -42.09,10.8 -77.19,10.8l-61.61 0 0 85.5c0,12.94 0.74,21.09 2.14,24.47 1.98,4.69 4.62,7.99 7.91,9.8 3.38,1.89 10.21,2.8 20.43,2.8l11.53 0 0 20.26 -129.99 0 0 -20.26 7.91 0c11.03,0 18.61,-0.91 22.57,-2.8 4.04,-1.82 6.92,-4.7 8.73,-8.57 1.89,-3.95 2.8,-11.37 2.8,-22.24l0 -230.32c0,-10.7 -0.82,-17.88 -2.55,-21.5 -1.65,-3.7 -4.45,-6.34 -8.4,-8.07 -3.87,-1.73 -11.61,-2.55 -23.15,-2.55l-7.91 0 0 -20.26zm87.98 26.19l0 141.36 51.98 0c26.28,0 44.65,-2.31 55.19,-7 10.63,-4.69 19.36,-12.77 26.28,-24.3 6.92,-11.53 10.38,-24.96 10.38,-40.45 0,-16.97 -4.04,-31.06 -12.11,-42.42 -8.07,-11.37 -19.03,-19.03 -32.87,-23.07 -9.64,-2.72 -28.5,-4.12 -56.51,-4.12l-42.34 0zm557.96 -26.19l40.2 0 104.28 281.47c5.11,14.09 10.3,23.48 15.57,28.01 5.19,4.53 12.27,6.84 21.08,6.84l5.36 0 0 20.26 -119.69 0 0 -20.26c3.87,-0.33 7.58,-0.5 11.28,-0.5 7.75,0 12.85,-0.82 15.24,-2.39 4.69,-3.05 7,-6.92 7,-11.53 0,-3.38 -2.22,-11.7 -6.76,-24.79l-22.74 -65.08 -121.42 0 -26.19 72.74c-2.72,7.58 -4.03,12.77 -4.03,15.65 0,3.21 0.82,6.01 2.47,8.4 1.73,2.48 4.03,4.29 6.92,5.44 2.89,1.24 7.58,1.81 14,1.81 4.36,0 7.91,0.08 10.63,0.25l0 20.26 -100.66 0 0 -20.26c9.3,0 16.06,-0.91 20.18,-2.8 4.12,-1.82 7.66,-4.78 10.71,-8.9 3.05,-4.04 7.08,-12.69 12.1,-25.87l104.45 -278.75zm-42.01 188.31l103.88 0 -51.82 -144.81 -52.06 144.81zm466.35 -188.31l133.04 0c40.36,0 68.2,2.55 83.52,7.74 19.11,6.18 34.93,16.64 47.45,31.47 12.44,14.91 18.7,33.77 18.7,56.67 0,19.53 -4.78,36.41 -14.25,50.66 -11.45,17.05 -25.37,29.24 -41.68,36.41 -16.31,7.17 -42.09,10.8 -77.19,10.8l-61.61 0 0 85.5c0,12.94 0.74,21.09 2.14,24.47 1.98,4.69 4.62,7.99 7.91,9.8 3.38,1.89 10.21,2.8 20.43,2.8l11.53 0 0 20.26 -129.99 0 0 -20.26 7.91 0c11.03,0 18.61,-0.91 22.57,-2.8 4.04,-1.82 6.92,-4.7 8.73,-8.57 1.89,-3.95 2.8,-11.37 2.8,-22.24l0 -230.32c0,-10.7 -0.82,-17.88 -2.55,-21.5 -1.65,-3.7 -4.45,-6.34 -8.4,-8.07 -3.87,-1.73 -11.61,-2.55 -23.15,-2.55l-7.91 0 0 -20.26zm87.98 26.19l0 141.36 51.98 0c26.28,0 44.65,-2.31 55.19,-7 10.63,-4.69 19.36,-12.77 26.28,-24.3 6.92,-11.53 10.38,-24.96 10.38,-40.45 0,-16.97 -4.04,-31.06 -12.11,-42.42 -8.07,-11.37 -19.03,-19.03 -32.87,-23.07 -9.64,-2.72 -28.5,-4.12 -56.51,-4.12l-42.34 0zm433.82 -26.19l273.81 0 31.63 88.39 -21.25 7.99c-5.36,-14.5 -11.12,-25.87 -17.47,-34.1 -6.26,-8.32 -13.84,-15.32 -22.65,-21.09 -8.81,-5.85 -17.62,-9.63 -26.6,-11.61 -8.98,-1.89 -25.21,-2.89 -48.6,-2.89l-81.88 0 0 123.57 40.69 0c15,0 26.28,-2.55 33.94,-7.66 7.66,-5.02 13.01,-11.37 15.9,-19.03 2.22,-5.6 3.38,-15.48 3.38,-29.49l0 -5.6 23.72 0 0 147.78 -23.72 0 0 -12.77c0,-11.28 -0.82,-19.44 -2.55,-24.38 -1.65,-5.02 -4.78,-9.73 -9.31,-14.17 -4.53,-4.45 -9.39,-7.41 -14.66,-9.06 -5.19,-1.57 -14.17,-2.39 -26.69,-2.39l-40.69 0 0 109.07c0,11.37 0.5,18.28 1.57,20.75 1.07,2.47 2.8,4.29 5.19,5.44 2.47,1.07 9.06,1.65 19.85,1.65l50.66 0c28.26,0 50.33,-3.38 66.23,-10.13 15.9,-6.76 29.9,-17.05 42.01,-30.97 9.47,-10.79 18.61,-26.11 27.26,-45.88l21.99 7.74 -37.56 105.44 -284.19 0 0 -20.26 9.63 0c11.2,0 18.13,-0.75 20.85,-2.15 4.2,-2.14 7.41,-5.43 9.63,-10.13 1.57,-3.13 2.39,-10.13 2.39,-20.85l0 -231.8c0,-10.54 -1.07,-17.63 -3.13,-21.17 -2.06,-3.55 -5.69,-6.35 -10.79,-8.24 -2.72,-1.15 -12.27,-1.73 -28.59,-1.73l0 -20.26zm568.75 0l129.98 0 0 20.26 -12.11 0c-9.3,0 -15.9,0.91 -19.77,2.64 -3.87,1.82 -6.67,4.45 -8.49,7.83 -1.72,3.38 -2.63,9.47 -2.63,18.21l0 234.44c0,10.79 0.41,17.21 1.23,19.28 0.91,2.88 3.05,5.02 6.26,6.26 2.31,0.99 8.81,1.48 19.61,1.48l18.2 0c20.85,0 38.97,-2.97 54.29,-8.98 15.32,-6.01 28.59,-14.74 39.62,-26.19 11.12,-11.45 21.83,-28.59 32.04,-51.32l21.5 7.25 -37.64 105.44 -242.09 0 0 -20.26 10.62 0c10.3,0 17.22,-0.91 20.76,-2.72 3.54,-1.81 6.26,-4.78 8.24,-8.9 1.89,-4.2 2.88,-11.37 2.88,-21.5l0 -228.34c0,-11.7 -0.91,-19.52 -2.63,-23.47 -1.82,-4.04 -4.37,-6.84 -7.75,-8.57 -3.37,-1.73 -10.54,-2.55 -21.5,-2.55l-10.62 0 0 -20.26zm511.41 0l273.81 0 31.63 88.39 -21.25 7.99c-5.36,-14.5 -11.12,-25.87 -17.47,-34.1 -6.26,-8.32 -13.84,-15.32 -22.65,-21.09 -8.81,-5.85 -17.62,-9.63 -26.6,-11.61 -8.98,-1.89 -25.21,-2.89 -48.6,-2.89l-81.88 0 0 123.57 40.69 0c15,0 26.28,-2.55 33.94,-7.66 7.66,-5.02 13.01,-11.37 15.9,-19.03 2.22,-5.6 3.38,-15.48 3.38,-29.49l0 -5.6 23.72 0 0 147.78 -23.72 0 0 -12.77c0,-11.28 -0.82,-19.44 -2.55,-24.38 -1.65,-5.02 -4.78,-9.73 -9.31,-14.17 -4.53,-4.45 -9.39,-7.41 -14.66,-9.06 -5.19,-1.57 -14.17,-2.39 -26.69,-2.39l-40.69 0 0 109.07c0,11.37 0.5,18.28 1.57,20.75 1.07,2.47 2.8,4.29 5.19,5.44 2.47,1.07 9.06,1.65 19.85,1.65l50.66 0c28.26,0 50.33,-3.38 66.23,-10.13 15.9,-6.76 29.9,-17.05 42.01,-30.97 9.47,-10.79 18.61,-26.11 27.26,-45.88l21.99 7.74 -37.56 105.44 -284.19 0 0 -20.26 9.63 0c11.2,0 18.13,-0.75 20.85,-2.15 4.2,-2.14 7.41,-5.43 9.63,-10.13 1.57,-3.13 2.39,-10.13 2.39,-20.85l0 -231.8c0,-10.54 -1.07,-17.63 -3.13,-21.17 -2.06,-3.55 -5.69,-6.35 -10.79,-8.24 -2.72,-1.15 -12.27,-1.73 -28.59,-1.73l0 -20.26zm570.23 0l173.07 0c32.87,0 57.74,3.46 74.55,10.3 16.81,6.84 29.73,16.72 38.8,29.66 9.06,12.94 13.59,27.93 13.59,44.98 0,17.54 -4.36,33.11 -13.18,46.7 -8.81,13.6 -21.5,24.3 -38.05,32.13 -16.56,7.83 -38.55,11.87 -65.9,12.2l88.05 108.48c7.25,9.06 11.95,14.58 14.25,16.64 5.6,5.02 11.53,8.82 17.71,11.37 6.18,2.55 13.1,3.88 20.84,3.88l6.02 0 0 20.26 -76.7 0 -123.07 -160.63 -42.99 0 0 103.79c0,11.53 0.41,18.78 1.15,21.66 1.82,5.44 4.62,9.31 8.49,11.53 3.96,2.22 11.53,3.38 22.82,3.38l8.57 0 0 20.26 -128.01 0 0 -20.26 11.53 0c8.65,0 14.41,-0.58 17.38,-1.65 2.96,-1.15 5.6,-3.13 7.9,-5.93 2.39,-2.8 4.04,-6.35 4.95,-10.71 0.32,-1.73 0.58,-9.8 0.74,-24.22l0 -220.43c0,-9.8 -0.99,-16.81 -2.89,-21.09 -1.89,-4.28 -4.61,-7.33 -8.07,-9.23 -3.38,-1.89 -9.39,-2.8 -17.88,-2.8l-13.67 0 0 -20.26zm86.99 26.19l0 127.02 68.94 0c23.32,0 39.79,-1.48 49.18,-4.36 13.51,-3.87 24.05,-10.96 31.88,-21.25 7.74,-10.38 11.61,-23.48 11.61,-39.46 0,-13.59 -2.8,-24.96 -8.4,-34.27 -5.6,-9.23 -13.27,-16.14 -22.9,-20.76 -9.73,-4.61 -24.14,-6.92 -43.41,-6.92l-86.9 0zm478.3 -26.19l128.51 0 0 20.26 -9.89 0c-9.23,0 -15.98,1.32 -20.1,3.88 -4.2,2.55 -7.25,6.26 -9.14,10.95 -1.89,4.78 -2.89,14 -2.89,27.68l0 216.98c0,10.95 1.07,18.78 3.13,23.39 2.06,4.61 5.02,7.91 8.73,10.05 3.79,2.05 10.54,3.13 20.26,3.13l9.89 0 0 20.26 -128.51 0 0 -20.26 10.63 0c9.47,0 16.23,-1.08 20.18,-3.3 3.96,-2.14 6.76,-5.27 8.56,-9.39 1.73,-4.12 2.64,-12.11 2.64,-23.89l0 -221.42c0,-12.6 -0.91,-21.08 -2.64,-25.37 -1.81,-4.36 -4.61,-7.58 -8.56,-9.63 -3.96,-2.06 -10.71,-3.05 -20.18,-3.05l-10.63 0 0 -20.26zm28.66 -25.7l0 -8.4 44.73 -32.95c15.32,-11.28 28.09,-16.97 38.47,-16.97 4.78,0 8.9,1.73 12.2,5.19 3.29,3.46 4.94,7.82 4.94,12.93 0,6.34 -2.22,11.53 -6.76,15.65 -4.53,4.12 -12.68,7.42 -24.46,10.05l-69.12 14.5zm481.18 25.7l40.2 0 104.28 281.47c5.11,14.09 10.3,23.48 15.57,28.01 5.19,4.53 12.27,6.84 21.08,6.84l5.36 0 0 20.26 -119.69 0 0 -20.26c3.87,-0.33 7.58,-0.5 11.28,-0.5 7.75,0 12.85,-0.82 15.24,-2.39 4.69,-3.05 7,-6.92 7,-11.53 0,-3.38 -2.22,-11.7 -6.76,-24.79l-22.74 -65.08 -121.42 0 -26.19 72.74c-2.72,7.58 -4.03,12.77 -4.03,15.65 0,3.21 0.82,6.01 2.47,8.4 1.73,2.48 4.03,4.29 6.92,5.44 2.89,1.24 7.58,1.81 14,1.81 4.36,0 7.91,0.08 10.63,0.25l0 20.26 -100.66 0 0 -20.26c9.3,0 16.06,-0.91 20.18,-2.8 4.12,-1.82 7.66,-4.78 10.71,-8.9 3.05,-4.04 7.08,-12.69 12.1,-25.87l104.45 -278.75zm-42.01 188.31l103.88 0 -51.82 -144.81 -52.06 144.81zm852.11 -188.31l17.38 0 25.79 103.79 -22.25 6.92c-14.17,-28.99 -33.03,-51.9 -56.5,-68.53 -19.36,-13.92 -40.78,-20.92 -64.25,-20.92 -14.17,0 -26.93,2.55 -38.22,7.58 -11.2,5.1 -19.68,11.61 -25.29,19.68 -5.69,7.99 -8.49,16.23 -8.49,24.55 0,7.58 2.15,14.83 6.51,21.92 4.36,7.08 11.03,13.34 19.93,18.7 8.82,5.36 23.4,11.03 43.58,16.97l63.1 18.12c7.74,2.22 18.95,6.59 33.61,13.01 14.74,6.43 26.19,13.18 34.35,20.35 8.23,7.17 14.66,15.9 19.28,26.28 4.69,10.38 7,21.58 7,33.61 0,26.69 -11.7,50 -35.1,70.02 -23.39,20.01 -53.7,29.99 -90.86,29.99 -19.11,0 -36.24,-2.8 -51.4,-8.33 -15.07,-5.52 -31.39,-15.32 -48.93,-29.49l-11.12 32.37 -16.97 0 -22.41 -121.09 22.25 -4.45c8.23,22.24 19.11,41.18 32.78,56.67 13.59,15.57 28.66,27.26 45.14,35.25 16.56,7.91 33.37,11.87 50.42,11.87 23.22,0 43.58,-7 60.95,-20.92 14.5,-11.7 21.75,-25.46 21.75,-41.35 0,-14.58 -5.27,-26.52 -15.73,-35.84 -10.63,-9.3 -29.66,-17.95 -57,-25.95l-60.3 -17.3c-33.86,-9.8 -57.74,-22.32 -71.58,-37.56 -13.84,-15.24 -20.76,-32.78 -20.76,-52.47 0,-15.41 4.53,-29.66 13.51,-42.75 8.97,-13.1 22.82,-24.05 41.51,-32.87 18.61,-8.81 39.04,-13.26 61.28,-13.26 18.61,0 36.49,3.21 53.54,9.72 12.03,4.53 23.15,10.95 33.28,19.35l10.21 -23.64zm492.56 -5.43c30.73,0 58.48,7.41 83.28,22.15 26.86,15.9 47.53,36.49 61.95,61.86 14.42,25.38 21.58,54.78 21.58,88.15 0,51.65 -16.06,93.82 -48.27,126.44 -32.21,32.53 -73.23,48.85 -123.15,48.85 -55.68,0 -99.75,-19.61 -132.21,-58.74 -26.61,-31.96 -39.87,-70.19 -39.87,-114.66 0,-33.03 7.5,-62.69 22.49,-88.96 14.91,-26.2 36.17,-46.95 63.68,-62.2 27.52,-15.24 57.74,-22.89 90.53,-22.89zm-0.08 26.19c-25.21,0 -46.79,5.76 -64.91,17.21 -18.04,11.45 -32.54,28.33 -43.49,50.58 -10.88,22.32 -16.31,49.83 -16.31,82.54 0,31.22 5.36,57.74 16.06,79.49 10.8,21.75 25.21,38.39 43.25,49.92 18.12,11.53 38.47,17.3 61.04,17.3 22.4,0 42.25,-5.68 59.55,-16.97 17.3,-11.28 31.55,-29.08 42.84,-53.38 11.28,-24.3 16.97,-51.23 16.97,-80.97 0,-30.15 -5.69,-57.67 -16.97,-82.71 -9.64,-21.5 -22.49,-37.4 -38.47,-47.62 -15.98,-10.3 -35.84,-15.4 -59.56,-15.4zm698.4 -20.76l17.38 0 30.56 112.36 -22.24 6.26c-12.11,-25.79 -21.25,-43.16 -27.59,-51.98 -10.3,-14.25 -23.15,-25.53 -38.55,-33.85 -15.41,-8.33 -32.37,-12.53 -50.91,-12.53 -21.75,0 -41.85,5.85 -60.13,17.47 -18.29,11.61 -33.11,28.66 -44.48,51.07 -11.37,22.49 -17.05,47.78 -17.05,75.87 0,28.83 5.77,54.61 17.3,77.18 11.53,22.65 27.1,40.04 46.71,52.23 19.69,12.2 40.86,18.29 63.59,18.29 21.42,0 43.33,-6.09 65.65,-18.29 22.41,-12.27 41.85,-29.4 58.24,-51.4l19.36 13.27c-9.97,14.83 -20.76,27.35 -32.37,37.64 -18.29,16.56 -37.4,28.75 -57.17,36.66 -19.77,7.83 -41.51,11.78 -65.16,11.78 -52.3,0 -94.81,-19.36 -127.51,-58 -27.02,-32.13 -40.53,-70.35 -40.53,-114.66 0,-32.53 7.5,-62.11 22.41,-88.47 14.99,-26.44 35.67,-47.36 61.95,-62.93 26.28,-15.57 54.7,-23.39 85.09,-23.39 16.23,0 31.3,2.22 45.22,6.67 13.92,4.45 28.09,11.61 42.34,21.42l7.91 -22.65zm307.54 0l128.51 0 0 20.26 -9.89 0c-9.23,0 -15.98,1.32 -20.1,3.88 -4.2,2.55 -7.25,6.26 -9.14,10.95 -1.89,4.78 -2.89,14 -2.89,27.68l0 216.98c0,10.95 1.07,18.78 3.13,23.39 2.06,4.61 5.02,7.91 8.73,10.05 3.79,2.05 10.54,3.13 20.26,3.13l9.89 0 0 20.26 -128.51 0 0 -20.26 10.63 0c9.47,0 16.23,-1.08 20.18,-3.3 3.96,-2.14 6.76,-5.27 8.56,-9.39 1.73,-4.12 2.64,-12.11 2.64,-23.89l0 -221.42c0,-12.6 -0.91,-21.08 -2.64,-25.37 -1.81,-4.36 -4.61,-7.58 -8.56,-9.63 -3.96,-2.06 -10.71,-3.05 -20.18,-3.05l-10.63 0 0 -20.26zm509.85 0l40.2 0 104.28 281.47c5.11,14.09 10.3,23.48 15.57,28.01 5.19,4.53 12.27,6.84 21.08,6.84l5.36 0 0 20.26 -119.69 0 0 -20.26c3.87,-0.33 7.58,-0.5 11.28,-0.5 7.75,0 12.85,-0.82 15.24,-2.39 4.69,-3.05 7,-6.92 7,-11.53 0,-3.38 -2.22,-11.7 -6.76,-24.79l-22.74 -65.08 -121.42 0 -26.19 72.74c-2.72,7.58 -4.03,12.77 -4.03,15.65 0,3.21 0.82,6.01 2.47,8.4 1.73,2.48 4.03,4.29 6.92,5.44 2.89,1.24 7.58,1.81 14,1.81 4.36,0 7.91,0.08 10.63,0.25l0 20.26 -100.66 0 0 -20.26c9.3,0 16.06,-0.91 20.18,-2.8 4.12,-1.82 7.66,-4.78 10.71,-8.9 3.05,-4.04 7.08,-12.69 12.1,-25.87l104.45 -278.75zm-42.01 188.31l103.88 0 -51.82 -144.81 -52.06 144.81zm466.85 -188.31l129.98 0 0 20.26 -12.11 0c-9.3,0 -15.9,0.91 -19.77,2.64 -3.87,1.82 -6.67,4.45 -8.49,7.83 -1.72,3.38 -2.63,9.47 -2.63,18.21l0 234.44c0,10.79 0.41,17.21 1.23,19.28 0.91,2.88 3.05,5.02 6.26,6.26 2.31,0.99 8.81,1.48 19.61,1.48l18.2 0c20.85,0 38.97,-2.97 54.29,-8.98 15.32,-6.01 28.59,-14.74 39.62,-26.19 11.12,-11.45 21.83,-28.59 32.04,-51.32l21.5 7.25 -37.64 105.44 -242.09 0 0 -20.26 10.62 0c10.3,0 17.22,-0.91 20.76,-2.72 3.54,-1.81 6.26,-4.78 8.24,-8.9 1.89,-4.2 2.88,-11.37 2.88,-21.5l0 -228.34c0,-11.7 -0.91,-19.52 -2.63,-23.47 -1.82,-4.04 -4.37,-6.84 -7.75,-8.57 -3.37,-1.73 -10.54,-2.55 -21.5,-2.55l-10.62 0 0 -20.26z"/>
    <g>
     <path class="fil8" d="M14996.77 1664.65l7.52 -46.77c28.18,-13.66 57.34,-19.56 87.76,-29.95 33.23,-11.34 54.58,-19.26 87,-30.3 54.39,-18.51 114.76,-55.85 167.67,-72.8 65.91,-21.12 149.7,-4.43 198.85,42.96 44.1,42.51 76.04,99.86 66.68,173.07 -11.63,90.98 -40.47,130.98 -98.21,165.46 -107.62,64.26 -200.07,16.36 -280.33,-50.92l-156.57 -103.9c-28.09,-16.58 -53.07,-24.62 -80.36,-46.85z"/>
     <path class="fil8" d="M14847.09 1539.14c-26.9,-32.23 -12.06,-60.69 -2.17,-88.48 65.89,-185.33 66.56,-197.7 112.9,-392.26l33.55 -164.77c45.2,-111.67 99.96,-180.48 228.44,-229.38 122.06,-46.47 260.48,-9.32 338.81,48.17 184.05,135.08 223.32,417.67 12.2,593.68 -46.72,38.95 -114.78,57.51 -181.58,74.09 -140.75,34.94 -288.66,97.01 -420.43,154.39 -25.07,10.92 -77.05,58.07 -121.71,4.57z"/>
     <path class="fil8" d="M14404.33 999.01c-15.11,-93.14 24.08,-195.78 110.36,-251.87 94.59,-61.49 241.9,-64.32 294.14,1.44 23.7,-1.56 95.47,84.16 111.35,162.63 23.27,114.93 -50.49,204.45 -101.56,326.66l-58.7 158.37c5.04,48.23 -44.11,103.03 -91.17,55.27 -13.92,-14.14 -32.91,-58.83 -44.56,-82.49 -27.29,-55.46 -30.2,-45.74 -44.45,-72.92 -51.57,-98.36 -158.58,-193.37 -175.41,-297.09z"/>
    </g>
   </g>
  </g>
 </g>
</svg>
