<?xml version="1.0" encoding="UTF-8"?>
<!DOCTYPE svg PUBLIC "-//W3C//DTD SVG 1.1//EN" "http://www.w3.org/Graphics/SVG/1.1/DTD/svg11.dtd">
<!-- Creator: CorelDRAW 2021 (64-Bit) -->
<svg xmlns="http://www.w3.org/2000/svg" xml:space="preserve" width="175.058mm" height="175.058mm" version="1.1" style="shape-rendering:geometricPrecision; text-rendering:geometricPrecision; image-rendering:optimizeQuality; fill-rule:evenodd; clip-rule:evenodd"
viewBox="0 0 6136.97 6136.97"
 xmlns:xlink="http://www.w3.org/1999/xlink"
 xmlns:xodm="http://www.corel.com/coreldraw/odm/2003">
 <defs>
  <style type="text/css">
   <![CDATA[
    .fil0 {fill:#EBABC3}
    .fil2 {fill:white}
    .fil1 {fill:white;fill-rule:nonzero}
   ]]>
  </style>
 </defs>
 <g id="Capa_x0020_1">
  <metadata id="CorelCorpID_0Corel-Layer"/>
  <g id="_2028231938384">
   <path class="fil0" d="M3068.48 0c1694.68,0 3068.48,1373.81 3068.48,3068.48 0,1694.68 -1373.81,3068.48 -3068.48,3068.48 -1694.68,0 -3068.48,-1373.81 -3068.48,-3068.48 0,-1694.68 1373.81,-3068.48 3068.48,-3068.48z"/>
   <g>
    <path class="fil1" d="M779.74 2711.64l5.51 -30.86 230.34 -41.47c11.51,-1.99 19.43,-4.68 23.63,-8.11 4.19,-3.36 6.93,-8.48 8.14,-15.25l0.74 -4.11 15.55 2.78 -16.41 91.87 -15.55 -2.78c0.28,-3.01 0.66,-5.89 1.17,-8.73 1.06,-5.94 1.13,-9.98 0.26,-12.02 -1.7,-4.02 -4.35,-6.32 -7.89,-6.96 -2.59,-0.46 -9.29,0.11 -19.96,1.79l-53.07 8.53 -16.64 93.2 52.24 30.08c5.45,3.12 9.25,4.85 11.46,5.24 2.47,0.44 4.73,0.19 6.79,-0.75 2.13,-0.99 3.84,-2.51 5.12,-4.56 1.35,-2.04 2.43,-5.57 3.31,-10.5 0.6,-3.35 1.14,-6.05 1.64,-8.12l15.55 2.78 -13.8 77.26 -15.55 -2.78c1.28,-7.14 1.5,-12.45 0.62,-15.87 -0.83,-3.41 -2.62,-6.53 -5.36,-9.44 -2.68,-2.89 -8.76,-7.18 -18.19,-12.84l-199.65 -118.38zm138.78 58.05l14.24 -79.73 -118.26 19.92 104.02 59.81zm-48.59 -447.03l3.7 -13.04 90.78 1.01 -0.04 18.02c-21.91,3.59 -36.9,6.75 -44.86,9.63 -12.88,4.69 -24.08,11.93 -33.6,21.71 -9.52,9.78 -16.29,21.62 -20.23,35.52 -4.63,16.31 -4.53,32.63 0.29,48.82 4.82,16.19 14.45,30.94 28.83,44.24 14.45,13.31 32.2,22.97 53.27,28.95 21.62,6.14 42.19,7.3 61.58,3.46 19.45,-3.82 35.8,-11.8 49.12,-23.91 13.34,-12.17 22.42,-26.75 27.26,-43.8 4.56,-16.06 4.66,-33.8 0.26,-53.14 -4.43,-19.42 -13.14,-37.65 -26.15,-54.63l14.07 -11.69c9,10.63 16.09,21.4 21.34,32.3 8.53,17.24 13.6,34.17 15.32,50.69 1.66,16.49 -0.01,33.65 -5.04,51.38 -11.14,39.24 -34.71,66.99 -70.65,83.3 -29.85,13.42 -61.4,15.41 -94.64,5.98 -24.41,-6.93 -44.99,-18.85 -61.59,-35.65 -16.64,-16.88 -27.93,-36.84 -34.01,-59.87 -6.08,-23.03 -5.9,-46.01 0.57,-68.81 3.46,-12.17 8.33,-23 14.64,-32.5 6.3,-9.49 14.69,-18.6 25.08,-27.2l-15.31 -10.76zm38.05 -104.66l41.75 -92.35 14.4 6.51 -2.8 6.21c-3.39,7.49 -5.06,13.22 -5.06,17.1 0.03,3.05 1.12,5.79 3.29,8.32 2.19,2.47 7.4,5.61 15.66,9.34l107.57 48.63c19.19,8.68 34.47,12.77 45.81,12.33 11.37,-0.5 22.64,-4.71 33.8,-12.7 11.18,-8.06 19.72,-18.51 25.59,-31.5 5.92,-13.11 8.11,-26.99 6.7,-41.8 -1.44,-14.75 -5.69,-26.55 -12.82,-35.4 -7.1,-8.92 -20.62,-17.85 -40.57,-26.87l-103.35 -46.72c-7.61,-3.44 -13.45,-5.17 -17.45,-5.21 -4.08,-0.01 -7.55,1.1 -10.56,3.4 -2.96,2.33 -5.89,6.64 -8.8,13.08l-3.02 6.67 -14.4 -6.51 36.04 -79.71 14.4 6.51 -2.49 5.5c-4.08,9.01 -5.18,15.98 -3.26,20.94 1.94,4.9 7.61,9.51 17.15,13.82l110.15 49.79c20.07,9.08 35.15,20.47 45.14,34.08 9.99,13.61 15.67,29.43 17,47.37 1.28,17.91 -2.4,36.48 -11.05,55.62 -8.18,18.09 -19.62,32.79 -34.44,44.21 -14.73,11.38 -29.71,17.86 -44.86,19.54 -15.11,1.63 -31.68,-1.63 -49.71,-9.78l-117.17 -52.97c-7.55,-3.41 -13.2,-5.12 -16.85,-5.15 -3.65,-0.02 -6.71,0.99 -9.31,2.98 -2.53,2.03 -5.27,6.21 -8.21,12.71l-3.86 8.55 -14.4 -6.51zm201.5 -390.85l16.92 -26.39 228.64 49.99c11.4,2.58 19.74,3.12 24.94,1.57 5.16,-1.5 9.65,-5.18 13.36,-10.97l2.25 -3.51 13.3 8.53 -50.37 78.57 -13.3 -8.53c1.41,-2.68 2.86,-5.18 4.42,-7.62 3.26,-5.08 4.87,-8.78 4.84,-11 -0.02,-4.37 -1.6,-7.51 -4.62,-9.45 -2.22,-1.42 -8.61,-3.46 -19.12,-6l-52.28 -12.46 -51.1 79.7 36.72 47.8c3.83,4.97 6.68,8.02 8.57,9.24 2.11,1.35 4.29,1.98 6.56,1.91 2.35,-0.09 4.51,-0.85 6.48,-2.25 2.03,-1.37 4.38,-4.21 7.08,-8.43 1.84,-2.86 3.38,-5.15 4.63,-6.87l13.3 8.53 -42.36 66.08 -13.3 -8.53c3.92,-6.11 6.16,-10.92 6.65,-14.42 0.54,-3.47 0.09,-7.04 -1.33,-10.78 -1.36,-3.7 -5.34,-9.99 -11.88,-18.83l-139.02 -185.87zm105.93 106.82l43.71 -68.19 -116.86 -26.93 73.15 95.12zm9.43 -277.74l88.35 -102c16.78,-19.37 31.52,-32.27 44.13,-38.68 12.61,-6.41 25.04,-8.99 37.28,-7.73 12.25,1.27 23.4,6.25 33.45,14.95 10.34,8.96 17.29,19.48 20.8,31.61 3.51,12.14 3.35,25.08 -0.5,38.83 -3.84,13.75 -12.69,28.77 -26.45,45.06l108.89 3.48c9.04,0.35 14.69,0.41 17.08,0.1 5.82,-0.74 11.08,-2.3 15.74,-4.63 4.66,-2.34 8.97,-5.74 12.93,-10.31l3.07 -3.54 11.94 10.35 -39.15 45.2 -157.5 -9.48 -21.95 25.34 61.17 52.99c6.8,5.89 11.28,9.35 13.36,10.38 4.13,1.71 7.84,2.03 11.13,0.89 3.33,-1.2 7.88,-5.07 13.64,-11.72l4.38 -5.05 11.94 10.34 -65.35 75.45 -11.94 -10.35 5.89 -6.8c4.42,-5.1 7.02,-8.79 7.91,-11.08 0.83,-2.34 1.01,-4.9 0.54,-7.69 -0.43,-2.84 -1.68,-5.62 -3.79,-8.38 -0.85,-1.08 -5.48,-5.35 -13.9,-12.8l-129.91 -112.53c-5.78,-5 -10.41,-8 -13.9,-9.07 -3.49,-1.07 -6.67,-1.03 -9.56,0.05 -2.84,1.02 -6.44,4.1 -10.78,9.1l-6.98 8.06 -11.94 -10.35zm59.85 -37.9l74.86 64.84 35.2 -40.63c11.9,-13.74 19.44,-24.21 22.53,-31.21 4.62,-9.94 5.82,-19.77 3.75,-29.64 -2.16,-9.86 -7.91,-18.83 -17.33,-26.99 -8.01,-6.94 -16.14,-11.09 -24.48,-12.54 -8.3,-1.41 -16.29,-0.43 -23.92,2.9 -7.68,3.38 -16.4,10.69 -26.24,22.05l-44.36 51.21zm145.64 -198.43l161.37 -139.79 63.76 35.94 -8.45 15.55c-10.56,-5.81 -19.76,-9.56 -27.7,-11.18 -7.94,-1.71 -15.98,-1.97 -24.12,-0.87 -8.18,1.05 -15.31,3.32 -21.61,6.74 -6.26,3.47 -16.33,11.17 -30.11,23.11l-48.26 41.8 63.08 72.82 23.98 -20.77c8.84,-7.65 14.18,-14.92 16.09,-21.84 1.95,-6.87 1.86,-13.35 -0.35,-19.33 -1.55,-4.43 -5.92,-10.85 -13.07,-19.1l-2.86 -3.3 13.98 -12.11 75.44 87.09 -13.98 12.11 -6.52 -7.53c-5.76,-6.65 -10.41,-11.04 -13.95,-13.07 -3.54,-2.12 -7.78,-3.29 -12.72,-3.6 -4.94,-0.31 -9.32,0.42 -13.27,2.15 -3.86,1.72 -9.57,5.82 -16.95,12.22l-23.98 20.77 55.68 64.28c5.8,6.7 9.63,10.53 11.52,11.44 1.89,0.91 3.84,1.09 5.83,0.55 2.01,-0.63 6.18,-3.65 12.54,-9.16l29.86 -25.86c16.65,-14.42 27.94,-27.68 33.86,-39.78 5.92,-12.09 8.92,-25.31 8.95,-39.7 0.07,-11.2 -2.36,-24.9 -7.35,-40.96l16.91 -6.66 31.69 81.31 -167.49 145.09 -10.35 -11.94 5.68 -4.92c6.6,-5.72 10.3,-9.69 11.19,-11.9 1.38,-3.41 1.59,-6.99 0.51,-10.9 -0.68,-2.64 -3.77,-7.19 -9.23,-13.5l-118.34 -136.61c-5.38,-6.22 -9.63,-9.84 -12.65,-10.88 -3.02,-1.04 -6.59,-0.84 -10.57,0.65 -2.19,0.71 -8.12,5.25 -17.73,13.57l-10.35 -11.94zm232.23 -194.8l82.59 -58.73 9.16 12.88 -7.69 5.47c-5.91,4.21 -9.69,7.76 -11.37,10.61 -1.64,2.9 -2.23,5.84 -1.85,8.81 0.42,2.93 2.6,7.21 6.55,12.76l105.93 148.97c4.88,6.86 8.04,10.76 9.49,11.69 1.88,1.42 4.2,1.82 6.8,1.15 1.91,-0.41 6.27,-3.04 13.13,-7.92l11.57 -8.23c13.24,-9.42 23.42,-19.49 30.44,-30.23 7.02,-10.75 11.5,-22.29 13.34,-34.55 1.89,-12.3 0.95,-28.03 -2.83,-47.09l16.93 -5.11 23.73 84.01 -153.84 109.39 -9.16 -12.88 6.75 -4.8c6.54,-4.65 10.53,-8.36 11.96,-11.11 1.43,-2.75 1.82,-5.86 1.22,-9.37 -0.69,-3.53 -3.31,-8.53 -7.88,-14.97l-103.18 -145.1c-5.29,-7.43 -9.4,-12 -12.28,-13.73 -2.98,-1.75 -5.87,-2.37 -8.79,-1.94 -2.93,0.42 -7.86,3.14 -14.82,8.09l-6.75 4.8 -9.15 -12.88zm305.65 -200.72l27.9 -14.29 172.42 158.27c8.55,7.96 15.49,12.63 20.76,13.9 5.21,1.3 10.94,0.39 17.06,-2.75l3.72 -1.9 7.2 14.06 -83.06 42.54 -7.2 -14.06c2.57,-1.61 5.09,-3.04 7.66,-4.35 5.37,-2.75 8.63,-5.14 9.73,-7.07 2.18,-3.79 2.4,-7.29 0.76,-10.49 -1.2,-2.35 -5.7,-7.33 -13.5,-14.81l-38.91 -37.08 -84.27 43.16 7.68 59.79c0.81,6.23 1.74,10.3 2.76,12.3 1.14,2.23 2.71,3.88 4.7,4.95 2.08,1.1 4.32,1.54 6.73,1.31 2.44,-0.16 5.9,-1.44 10.36,-3.72 3.03,-1.55 5.51,-2.76 7.46,-3.61l7.2 14.06 -69.85 35.78 -7.2 -14.06c6.46,-3.31 10.82,-6.34 13.01,-9.12 2.21,-2.72 3.62,-6.04 4.27,-9.98 0.68,-3.88 0.41,-11.32 -0.79,-22.25l-26.6 -230.58zm37.78 145.61l72.09 -36.92 -87.43 -82.08 15.34 119zm258.39 -279.33l98.25 -33.25c29.81,-10.09 51.01,-15.16 63.62,-15.16 15.66,-0.21 29.96,3.56 42.91,11.38 12.91,7.9 22.25,20.27 27.98,37.18 4.88,14.42 5.57,28.08 2.13,40.98 -4.19,15.46 -11.43,27.94 -21.68,37.31 -10.26,9.37 -28.39,18.49 -54.31,27.26l-45.51 15.4 21.37 63.15c3.23,9.56 5.82,15.39 7.7,17.54 2.63,2.97 5.4,4.75 8.29,5.26 2.97,0.55 8.25,-0.48 15.79,-3.04l8.52 -2.88 5.07 14.97 -96.01 32.48 -5.07 -14.97 5.84 -1.98c8.15,-2.76 13.52,-5.32 15.97,-7.71 2.53,-2.35 3.94,-5.2 4.31,-8.51 0.41,-3.39 -0.77,-9.1 -3.49,-17.13l-57.56 -170.11c-2.67,-7.91 -5.08,-13 -7.26,-15.24 -2.15,-2.32 -4.87,-3.58 -8.22,-3.86 -3.29,-0.31 -9.22,1.02 -17.74,3.9l-5.84 1.98 -5.06 -14.97zm71.52 -2.64l35.33 104.4 38.39 -12.99c19.41,-6.57 32.4,-12.86 39.01,-18.97 6.67,-6.12 11.11,-14.27 13.33,-24.52 2.23,-10.25 1.43,-21.03 -2.44,-32.47 -4.24,-12.53 -10.74,-21.93 -19.54,-28.3 -8.8,-6.38 -18.81,-9.3 -30.04,-8.82 -7.79,0.4 -22.08,4.08 -42.76,11.08l-31.27 10.58zm290.95 -98.9l30.86 -5.51 118.63 201.75c5.85,10.11 11.12,16.61 15.79,19.36 4.6,2.77 10.36,3.57 17.12,2.36l4.11 -0.73 2.78 15.55 -91.87 16.41 -2.78 -15.55c2.93,-0.79 5.75,-1.42 8.6,-1.93 5.94,-1.06 9.75,-2.39 11.37,-3.92 3.19,-2.98 4.43,-6.27 3.79,-9.81 -0.46,-2.59 -3.31,-8.68 -8.59,-18.11l-26.37 -46.84 -93.2 16.64 -10.13 59.42c-1.04,6.19 -1.35,10.36 -0.95,12.57 0.44,2.46 1.46,4.5 3.05,6.11 1.67,1.66 3.68,2.73 6.05,3.22 2.38,0.55 6.07,0.35 11,-0.53 3.35,-0.6 6.08,-1.02 8.19,-1.27l2.78 15.55 -77.26 13.8 -2.78 -15.55c7.14,-1.28 12.2,-2.9 15.11,-4.91 2.91,-1.96 5.22,-4.72 7,-8.3 1.79,-3.51 3.7,-10.71 5.75,-21.51l41.96 -228.28zm-6.43 150.3l79.73 -14.24 -59.62 -104.05 -20.11 118.29zm194.73 -177.07l103.43 -7.86c31.38,-2.38 53.18,-2.04 65.4,1.08 15.23,3.67 28.14,10.87 38.75,21.66 10.55,10.85 16.53,25.15 17.89,42.96 1.15,15.18 -1.56,28.59 -8.08,40.23 -7.89,13.94 -18,24.23 -30.25,30.77 -12.26,6.54 -32.09,10.88 -59.37,12.95l-47.91 3.64 5.06 66.47c0.76,10.06 1.82,16.35 3.11,18.9 1.82,3.53 4.06,5.94 6.73,7.16 2.74,1.27 8.11,1.57 16.05,0.97l8.97 -0.68 1.2 15.75 -101.06 7.68 -1.2 -15.75 6.15 -0.47c8.58,-0.66 14.42,-1.81 17.38,-3.51 3.03,-1.65 5.1,-4.06 6.28,-7.18 1.24,-3.19 1.51,-9.01 0.86,-17.46l-13.61 -179.07c-0.63,-8.33 -1.7,-13.85 -3.26,-16.56 -1.5,-2.78 -3.84,-4.67 -7.01,-5.78 -3.11,-1.11 -9.18,-1.3 -18.15,-0.62l-6.15 0.47 -1.2 -15.75zm69.95 15.17l8.35 109.9 40.41 -3.07c20.43,-1.55 34.58,-4.43 42.5,-8.7 7.98,-4.28 14.29,-11.07 18.99,-20.45 4.7,-9.38 6.59,-20.02 5.68,-32.06 -1,-13.2 -4.97,-23.91 -11.92,-32.27 -6.95,-8.36 -15.92,-13.67 -26.92,-15.99 -7.65,-1.55 -22.4,-1.52 -44.18,0.14l-32.92 2.5zm209.99 -35.57l212.88 16.19 19.37 70.59 -16.99 4.96c-3.31,-11.59 -7.12,-20.76 -11.57,-27.54 -4.37,-6.84 -9.85,-12.73 -16.36,-17.74 -6.5,-5.07 -13.14,-8.53 -20,-10.6 -6.87,-2 -19.43,-3.73 -37.61,-5.11l-63.66 -4.84 -7.3 96.07 31.64 2.4c11.66,0.89 20.58,-0.43 26.84,-3.95 6.25,-3.45 10.79,-8.07 13.49,-13.85 2.06,-4.22 3.54,-11.84 4.37,-22.73l0.33 -4.35 18.44 1.4 -8.73 114.89 -18.44 -1.4 0.75 -9.92c0.67,-8.77 0.51,-15.17 -0.54,-19.11 -0.99,-4 -3.14,-7.84 -6.4,-11.57 -3.26,-3.73 -6.86,-6.32 -10.87,-7.91 -3.94,-1.52 -10.87,-2.7 -20.61,-3.44l-31.64 -2.4 -6.45 84.79c-0.67,8.84 -0.69,14.25 -0.01,16.23 0.69,1.99 1.92,3.5 3.71,4.53 1.86,0.99 6.95,1.82 15.34,2.46l39.39 2.99c21.97,1.67 39.33,0.35 52.09,-3.96 12.76,-4.31 24.26,-11.49 34.49,-21.6 8,-7.83 16.02,-19.2 23.91,-34.06l16.64 7.32 -35.44 79.75 -220.95 -16.8 1.2 -15.75 7.49 0.57c8.71,0.66 14.13,0.5 16.33,-0.43 3.4,-1.42 6.09,-3.79 8.09,-7.31 1.4,-2.34 2.45,-7.73 3.09,-16.06l13.7 -180.22c0.62,-8.2 0.21,-13.77 -1.18,-16.64 -1.39,-2.87 -4.04,-5.27 -7.9,-7.05 -2.05,-1.06 -9.44,-2.06 -22.12,-3.03l1.2 -15.75zm302.78 28.17l99.77 17.82 -2.78 15.55 -9.29 -1.66c-7.14,-1.28 -12.33,-1.49 -15.53,-0.69 -3.22,0.86 -5.73,2.5 -7.59,4.84 -1.79,2.35 -3.32,6.91 -4.52,13.61l-32.13 179.95c-1.48,8.28 -2.05,13.27 -1.69,14.96 0.3,2.34 1.65,4.27 3.94,5.66 1.64,1.08 6.56,2.35 14.84,3.83l13.97 2.49c16,2.86 30.31,3.06 42.9,0.55 12.59,-2.52 23.96,-7.4 34.01,-14.67 10.1,-7.26 20.67,-18.95 31.63,-35l15.51 8.51 -43.34 75.77 -185.83 -33.18 2.78 -15.55 8.15 1.46c7.9,1.41 13.34,1.66 16.3,0.76 2.97,-0.9 5.46,-2.81 7.54,-5.7 2.03,-2.97 3.77,-8.33 5.16,-16.11l31.3 -175.27c1.61,-8.98 1.98,-15.11 1.2,-18.38 -0.84,-3.35 -2.42,-5.85 -4.77,-7.64 -2.35,-1.79 -7.74,-3.4 -16.15,-4.91l-8.16 -1.45 2.78 -15.55zm269.33 47.25l202.23 68.43 1.27 73.18 -17.69 0.59c-0.33,-12.05 -1.75,-21.88 -4.38,-29.55 -2.55,-7.71 -6.39,-14.78 -11.46,-21.24 -5.05,-6.52 -10.61,-11.52 -16.75,-15.23 -6.16,-3.64 -17.9,-8.43 -35.17,-14.28l-60.47 -20.46 -30.88 91.26 30.05 10.17c11.08,3.75 20.05,4.68 26.98,2.82 6.91,-1.8 12.45,-5.15 16.5,-10.08 3.04,-3.58 6.36,-10.59 9.86,-20.94l1.4 -4.14 17.52 5.93 -36.93 109.15 -17.52 -5.93 3.19 -9.43c2.82,-8.33 4.25,-14.56 4.21,-18.65 0.04,-4.12 -1.1,-8.37 -3.33,-12.79 -2.23,-4.42 -5.08,-7.82 -8.57,-10.36 -3.44,-2.45 -9.86,-5.3 -19.11,-8.43l-30.05 -10.17 -27.26 80.55c-2.84,8.4 -4.2,13.63 -4.03,15.72 0.17,2.09 1,3.86 2.48,5.31 1.56,1.41 6.28,3.48 14.25,6.18l37.42 12.66c20.87,7.06 38.02,10.09 51.45,9.07 13.43,-1.01 26.35,-5.12 38.77,-12.37 9.69,-5.6 20.28,-14.64 31.6,-27.07l14.31 11.21 -54.09 68.49 -209.9 -71.03 5.06 -14.97 7.12 2.41c8.28,2.8 13.57,3.98 15.93,3.63 3.64,-0.53 6.84,-2.17 9.65,-5.08 1.94,-1.92 4.3,-6.89 6.97,-14.79l57.93 -171.2c2.64,-7.79 3.61,-13.29 2.98,-16.42 -0.64,-3.13 -2.61,-6.11 -5.91,-8.79 -1.72,-1.53 -8.63,-4.34 -20.68,-8.42l5.07 -14.97zm285.79 99.94l122.96 55.59c23.35,10.56 39.92,21 49.66,31.26 9.74,10.26 15.75,21.43 18.04,33.53 2.28,12.1 0.69,24.21 -4.79,36.32 -5.63,12.47 -13.74,22.12 -24.36,28.95 -10.63,6.82 -23.08,10.36 -37.36,10.6 -14.28,0.25 -31.2,-3.95 -50.73,-12.5l27.72 105.36c2.24,8.76 3.8,14.19 4.78,16.4 2.37,5.37 5.36,9.97 8.93,13.76 3.57,3.8 8.06,6.96 13.57,9.45l4.27 1.93 -6.51 14.4 -54.49 -24.63 -35.84 -153.65 -30.55 -13.81 -33.34 73.74c-3.71,8.19 -5.75,13.48 -6.14,15.76 -0.46,4.45 0.29,8.09 2.32,10.92 2.1,2.85 7.11,6.1 15.13,9.73l6.09 2.75 -6.51 14.4 -90.95 -41.12 6.51 -14.4 8.2 3.71c6.15,2.78 10.43,4.22 12.88,4.41 2.48,0.13 4.99,-0.43 7.53,-1.68 2.59,-1.22 4.9,-3.21 6.95,-6.02 0.79,-1.13 3.56,-6.78 8.31,-16.97l70.8 -156.61c3.15,-6.96 4.7,-12.26 4.73,-15.91 0.03,-3.65 -0.92,-6.69 -2.77,-9.15 -1.79,-2.43 -5.77,-5.01 -11.8,-7.73l-9.72 -4.39 6.51 -14.4zm53.39 46.55l-40.8 90.24 48.98 22.15c16.56,7.49 28.75,11.73 36.34,12.69 10.84,1.59 20.61,-0.06 29.47,-4.86 8.84,-4.88 15.8,-12.95 20.93,-24.3 4.36,-9.66 6.03,-18.63 5.04,-27.05 -1.02,-8.35 -4.24,-15.73 -9.6,-22.1 -5.43,-6.4 -14.93,-12.67 -28.62,-18.86l-61.74 -27.91zm216.02 88.29l86.86 49.94 -7.88 13.7 -6.68 -3.84c-6.24,-3.59 -11.32,-5.32 -15.09,-5.2 -3.83,0.09 -7.33,1.41 -10.44,3.86 -3.14,2.49 -7.39,8.34 -12.7,17.58l-84.33 146.66c-4.26,7.41 -6.58,13.11 -6.97,17.03 -0.4,3.92 0.32,7.3 1.99,10.19 1.76,2.86 5.91,6.21 12.48,9.99l6.68 3.84 -7.88 13.7 -86.86 -49.94 7.87 -13.7 7.19 4.13c6.4,3.68 11.38,5.58 14.92,5.61 3.51,0.09 6.62,-0.94 9.44,-3.01 2.77,-2.11 6.49,-7.16 11.07,-15.13l86.05 -149.67c4.9,-8.52 7.58,-14.61 8.08,-18.17 0.47,-3.66 -0.18,-6.91 -2.05,-9.84 -1.87,-2.93 -6.05,-6.22 -12.46,-9.9l-7.18 -4.13 7.87 -13.7zm29.37 -6.23l3.26 -5.68 43.04 -4.89c14.74,-1.67 25.58,-0.55 32.6,3.48 3.23,1.86 5.34,4.63 6.23,8.25 0.88,3.62 0.3,7.21 -1.69,10.66 -2.47,4.29 -5.99,6.93 -10.65,7.95 -4.66,1.02 -11.46,0.08 -20.44,-2.72l-52.35 -17.06zm184.19 144.51l25.55 18.17 -60.92 225.98c-3.12,11.26 -4.07,19.57 -2.76,24.83 1.25,5.22 4.7,9.89 10.31,13.87l3.4 2.42 -9.16 12.88 -76.06 -54.08 9.16 -12.88c2.61,1.54 5.04,3.11 7.39,4.79 4.92,3.5 8.54,5.28 10.76,5.37 4.36,0.19 7.58,-1.23 9.66,-4.16 1.52,-2.15 3.87,-8.44 6.91,-18.81l14.96 -51.62 -77.16 -54.86 -49.51 34.38c-5.15,3.59 -8.34,6.29 -9.64,8.12 -1.45,2.04 -2.19,4.19 -2.23,6.46 -0.02,2.35 0.63,4.54 1.94,6.58 1.27,2.09 4,4.57 8.08,7.48 2.78,1.97 4.99,3.62 6.64,4.96l-9.16 12.88 -63.96 -45.49 9.16 -12.88c5.91,4.21 10.62,6.68 14.09,7.34 3.44,0.71 7.03,0.43 10.83,-0.81 3.76,-1.18 10.23,-4.86 19.38,-10.96l192.33 -129.93zm-111.78 100.68l66.01 46.93 32.51 -115.43 -98.52 68.5zm494.59 245.27l9.35 9.81 -44.7 70.39 -15.87 -8.83c8.74,-23.59 11.51,-46.56 8.27,-68.76 -2.56,-18.42 -10.13,-34.27 -22.76,-47.52 -7.62,-7.99 -15.93,-13.83 -24.84,-17.49 -8.91,-3.58 -17.15,-4.86 -24.72,-3.68 -7.57,1.09 -13.72,3.94 -18.42,8.42 -4.28,4.08 -7.21,9.18 -8.86,15.46 -1.65,6.28 -1.59,13.41 0.17,21.31 1.72,7.85 6.36,19.14 13.87,33.72l23.72 45.36c2.91,5.57 6.48,14.24 10.74,25.97 4.3,11.78 6.65,21.88 6.99,30.33 0.39,8.51 -1.08,16.83 -4.46,25.02 -3.33,8.23 -8.41,15.56 -15.2,22.03 -15.06,14.36 -34.51,20.3 -58.39,17.87 -23.88,-2.43 -45.82,-14.18 -65.81,-35.14 -10.28,-10.79 -17.92,-21.96 -22.96,-33.48 -4.99,-11.48 -8.24,-25.96 -9.68,-43.48l-24.26 11.14 -9.13 -9.58 56.28 -77.79 14.47 10.16c-8.12,16.61 -12.96,32.94 -14.34,48.99 -1.47,16.05 0.04,30.85 4.39,44.44 4.45,13.6 11.26,25.21 20.43,34.84 12.5,13.11 27.4,20.82 44.6,23.14 14.4,1.89 26.06,-1.43 35.04,-9.98 8.22,-7.84 12.13,-17.24 11.75,-28.15 -0.46,-11 -5.82,-26.4 -16.02,-46.13l-22.68 -43.34c-12.68,-24.38 -18.47,-44.6 -17.31,-60.61 1.16,-16.01 7.33,-29.35 18.44,-39.95 8.69,-8.29 19.17,-13.4 31.4,-15.38 12.22,-1.98 25.85,-0.06 40.88,5.75 14.99,5.77 28.49,14.9 40.46,27.45 10.02,10.51 17.82,22.32 23.33,35.45 3.91,9.23 6.27,18.96 6.98,29.2l18.83 -6.96zm157.85 199.09c13.89,19.53 21.72,40.51 23.55,62.93 2.03,24.25 -1.71,46.69 -11.32,67.31 -9.61,20.63 -25.06,38.46 -46.25,53.54 -32.82,23.34 -66.88,32.19 -102.16,26.46 -35.23,-5.76 -64.13,-24.46 -86.69,-56.18 -25.16,-35.38 -32.62,-72.25 -22.42,-110.55 8.28,-31.35 26.58,-57.05 54.85,-77.15 20.99,-14.92 43.22,-23.56 66.69,-25.91 23.38,-2.36 46.18,1.76 68.29,12.36 22.12,10.6 40.64,26.35 55.46,47.18zm-16.68 11.79c-11.39,-16.02 -24.81,-27.13 -40.27,-33.47 -15.43,-6.29 -32.71,-7.87 -51.79,-4.79 -19.1,3.18 -39.04,12.16 -59.82,26.93 -19.84,14.11 -34.28,29.49 -43.25,46.12 -8.94,16.68 -13,33.36 -12.18,50.04 0.86,16.73 6.39,32.26 16.59,46.6 10.12,14.24 22.71,24.28 37.69,30.18 14.99,5.89 32.73,6.91 53.28,3.1 20.54,-3.81 40.22,-12.37 59.12,-25.81 19.16,-13.62 34.07,-29.67 44.89,-48.15 9.3,-15.84 13.6,-31.19 12.87,-45.96 -0.68,-14.8 -6.4,-29.73 -17.12,-44.8zm222.33 347.37l6.18 12.06 -67.11 61.15 -12.25 -13.21c13.59,-17.57 22.4,-30.09 26.26,-37.62 6.23,-12.21 9.49,-25.14 9.79,-38.79 0.3,-13.65 -2.82,-26.92 -9.41,-39.78 -7.73,-15.09 -18.93,-26.96 -33.49,-35.52 -14.56,-8.56 -31.66,-12.79 -51.25,-12.72 -19.65,0.11 -39.22,5.15 -58.71,15.13 -20,10.25 -35.85,23.42 -47.41,39.44 -11.62,16.06 -18.15,33.04 -19.64,50.98 -1.46,18 1.83,34.85 9.91,50.63 7.61,14.86 19.64,27.9 36.03,39.06 16.48,11.19 35.28,18.59 56.37,22.15l-2.32 18.15c-13.83,-1.65 -26.36,-4.69 -37.63,-9.09 -17.99,-6.8 -33.24,-15.73 -45.76,-26.64 -12.46,-10.94 -22.93,-24.62 -31.34,-41.03 -18.59,-36.3 -20.27,-72.68 -5.08,-109.11 12.69,-30.17 34.41,-53.13 65.17,-68.88 22.58,-11.57 45.77,-16.87 69.36,-15.9 23.68,1.01 45.55,7.92 65.69,20.62 20.14,12.7 35.67,29.64 46.48,50.74 5.77,11.26 9.59,22.51 11.45,33.76 1.86,11.24 1.92,23.62 0.19,37l18.53 -2.56zm39.61 89.69l36.75 93.21 -14.7 5.79 -2.83 -7.17c-2.64,-6.69 -5.53,-11.22 -8.56,-13.48 -3.05,-2.31 -6.62,-3.47 -10.56,-3.5 -4.01,-0.01 -10.98,1.91 -20.9,5.82l-157.38 62.05c-7.95,3.13 -13.32,6.15 -16.08,8.97 -2.76,2.81 -4.29,5.9 -4.79,9.21 -0.41,3.34 0.75,8.54 3.53,15.59l2.83 7.17 -14.7 5.79 -36.75 -93.21 14.7 -5.8 3.04 7.71c2.71,6.87 5.42,11.46 8.16,13.69 2.69,2.26 5.76,3.39 9.26,3.53 3.48,0.07 9.54,-1.55 18.08,-4.92l160.61 -63.33c9.14,-3.6 15.04,-6.69 17.65,-9.17 2.65,-2.56 4.18,-5.51 4.54,-8.97 0.36,-3.46 -0.85,-8.64 -3.56,-15.51l-3.04 -7.71 14.7 -5.8zm84.18 244.46l8.56 30.15 -188.91 138.17c-9.48,6.83 -15.42,12.73 -17.69,17.64 -2.29,4.86 -2.52,10.66 -0.64,17.27l1.14 4.02 -15.2 4.32 -25.49 -89.78 15.2 -4.32c1.07,2.84 1.98,5.58 2.77,8.36 1.65,5.81 3.35,9.46 5.04,10.92 3.28,2.87 6.68,3.78 10.14,2.8 2.53,-0.72 8.3,-4.16 17.16,-10.35l43.97 -30.91 -25.86 -91.07 -60.14 -4.16c-6.26,-0.42 -10.44,-0.31 -12.6,0.3 -2.41,0.68 -4.33,1.9 -5.78,3.65 -1.48,1.82 -2.35,3.94 -2.6,6.35 -0.31,2.43 0.26,6.07 1.62,10.89 0.93,3.27 1.62,5.95 2.08,8.02l-15.2 4.32 -21.44 -75.5 15.2 -4.32c1.98,6.98 4.1,11.85 6.4,14.54 2.24,2.7 5.22,4.73 8.95,6.13 3.67,1.43 11.02,2.62 21.98,3.58l231.33 18.98zm-150.19 8.6l22.12 77.91 97.59 -69.7 -119.71 -8.21zm193.28 177.84l17.82 99.77 -15.55 2.78 -1.66 -9.29c-1.28,-7.14 -2.87,-12.08 -4.73,-14.82 -1.92,-2.72 -4.33,-4.51 -7.17,-5.44 -2.83,-0.87 -7.63,-0.73 -14.33,0.47l-179.95 32.13c-8.28,1.48 -13.16,2.67 -14.63,3.59 -2.09,1.09 -3.44,3.03 -3.95,5.66 -0.44,1.9 0.07,6.97 1.55,15.25l2.5 13.97c2.86,16 7.62,29.5 14.33,40.44 6.72,10.93 15.24,19.92 25.54,26.82 10.31,6.97 24.94,12.84 43.78,17.56l-2.62 17.49 -86.09 -14.44 -33.18 -185.83 15.55 -2.78 1.45 8.15c1.41,7.9 3.06,13.09 4.94,15.56 1.88,2.47 4.52,4.15 7.95,5.1 3.48,0.88 9.12,0.65 16.9,-0.74l175.27 -31.3c8.98,-1.61 14.86,-3.37 17.66,-5.24 2.85,-1.95 4.65,-4.29 5.51,-7.12 0.87,-2.83 0.52,-8.45 -0.99,-16.86l-1.46 -8.15 15.55 -2.78z"/>
    <path class="fil1" d="M5360.21 3460.01l-5.51 30.86 -230.34 41.47c-11.51,1.99 -19.43,4.68 -23.63,8.11 -4.19,3.36 -6.93,8.48 -8.14,15.25l-0.74 4.11 -15.55 -2.78 16.41 -91.87 15.55 2.78c-0.28,3.01 -0.66,5.89 -1.17,8.73 -1.06,5.94 -1.13,9.98 -0.26,12.02 1.7,4.02 4.35,6.32 7.89,6.96 2.59,0.46 9.29,-0.11 19.96,-1.79l53.07 -8.53 16.64 -93.2 -52.24 -30.08c-5.45,-3.12 -9.25,-4.85 -11.46,-5.24 -2.47,-0.44 -4.73,-0.19 -6.79,0.75 -2.13,0.99 -3.84,2.51 -5.12,4.56 -1.35,2.04 -2.43,5.57 -3.31,10.5 -0.6,3.35 -1.14,6.05 -1.64,8.12l-15.55 -2.78 13.8 -77.26 15.55 2.78c-1.28,7.14 -1.5,12.45 -0.62,15.87 0.83,3.41 2.62,6.53 5.36,9.44 2.68,2.89 8.76,7.18 18.19,12.84l199.65 118.38zm-138.78 -58.05l-14.24 79.73 118.26 -19.92 -104.02 -59.81zm37.94 456.11l-4.34 12.84 -90.62 -5.51 0.94 -17.99c22.07,-2.5 37.19,-4.91 45.28,-7.39 13.1,-4.05 24.65,-10.72 34.64,-20.01 10,-9.3 17.34,-20.78 21.97,-34.47 5.44,-16.06 6.14,-32.37 2.13,-48.78 -4.01,-16.41 -12.9,-31.62 -26.6,-45.62 -13.77,-14.02 -31.03,-24.54 -51.77,-31.56 -21.29,-7.2 -41.78,-9.39 -61.33,-6.51 -19.61,2.86 -36.34,10.01 -50.24,21.44 -13.92,11.5 -23.72,25.61 -29.4,42.4 -5.35,15.82 -6.32,33.52 -2.9,53.06 3.47,19.62 11.26,38.26 23.41,55.86l-14.64 10.98c-8.46,-11.06 -15.01,-22.17 -19.71,-33.32 -7.66,-17.64 -11.89,-34.81 -12.79,-51.38 -0.84,-16.56 1.68,-33.61 7.59,-51.07 13.07,-38.63 37.99,-65.18 74.7,-79.68 30.48,-11.93 62.09,-12.35 94.82,-1.28 24.03,8.13 44,21.06 59.74,38.66 15.78,17.68 26.07,38.18 31,61.48 4.93,23.3 3.61,46.24 -3.99,68.69 -4.05,11.99 -9.46,22.57 -16.23,31.73 -6.76,9.17 -15.6,17.84 -26.4,25.92l14.75 11.5zm-37.57 106.79l-46.2 90.21 -14.06 -7.2 3.11 -6.06c3.75,-7.32 5.7,-12.96 5.88,-16.83 0.12,-3.04 -0.83,-5.84 -2.88,-8.47 -2.07,-2.58 -7.12,-5.96 -15.18,-10.09l-105.07 -53.82c-18.75,-9.6 -33.81,-14.43 -45.16,-14.54 -11.38,-0.05 -22.84,3.6 -34.38,11.04 -11.56,7.5 -20.59,17.52 -27.09,30.21 -6.56,12.81 -9.42,26.57 -8.73,41.42 0.72,14.8 4.39,26.79 11.08,35.99 6.66,9.26 19.73,18.84 39.22,28.82l100.95 51.71c7.43,3.81 13.18,5.82 17.17,6.05 4.08,0.21 7.59,-0.73 10.71,-2.88 3.07,-2.18 6.21,-6.35 9.43,-12.63l3.34 -6.52 14.06 7.2 -39.88 77.86 -14.06 -7.2 2.75 -5.37c4.51,-8.81 5.96,-15.71 4.28,-20.75 -1.7,-4.99 -7.14,-9.87 -16.46,-14.64l-107.59 -55.11c-19.61,-10.04 -34.11,-22.16 -43.42,-36.24 -9.31,-14.08 -14.22,-30.16 -14.67,-48.14 -0.4,-17.96 4.18,-36.33 13.75,-55.02 9.05,-17.67 21.19,-31.8 36.55,-42.48 15.27,-10.65 30.55,-16.39 45.75,-17.33 15.18,-0.89 31.57,3.18 49.17,12.19l114.45 58.62c7.38,3.78 12.93,5.76 16.57,5.97 3.65,0.2 6.76,-0.66 9.45,-2.52 2.63,-1.9 5.57,-5.95 8.82,-12.29l4.27 -8.35 14.06 7.2zm-203.13 375.78l-16.92 26.39 -228.64 -49.99c-11.4,-2.58 -19.74,-3.12 -24.94,-1.57 -5.16,1.5 -9.65,5.18 -13.36,10.97l-2.25 3.51 -13.3 -8.53 50.37 -78.57 13.3 8.53c-1.41,2.68 -2.86,5.18 -4.42,7.62 -3.26,5.08 -4.87,8.78 -4.84,11 0.02,4.37 1.6,7.51 4.62,9.45 2.22,1.42 8.61,3.46 19.12,6l52.28 12.46 51.1 -79.7 -36.72 -47.8c-3.83,-4.97 -6.68,-8.02 -8.57,-9.24 -2.11,-1.35 -4.29,-1.98 -6.56,-1.91 -2.35,0.09 -4.51,0.85 -6.48,2.25 -2.03,1.37 -4.38,4.21 -7.08,8.43 -1.84,2.86 -3.38,5.15 -4.63,6.87l-13.3 -8.53 42.36 -66.08 13.3 8.53c-3.92,6.11 -6.16,10.92 -6.65,14.42 -0.54,3.47 -0.09,7.04 1.33,10.78 1.36,3.7 5.34,9.99 11.88,18.83l139.02 185.87zm-105.93 -106.82l-43.71 68.19 116.86 26.93 -73.15 -95.12zm-13.16 273.88l-88.35 102c-16.78,19.37 -31.52,32.27 -44.13,38.68 -12.61,6.41 -25.04,8.99 -37.28,7.73 -12.25,-1.27 -23.4,-6.25 -33.45,-14.95 -10.34,-8.96 -17.29,-19.48 -20.8,-31.61 -3.51,-12.14 -3.35,-25.08 0.5,-38.83 3.84,-13.75 12.69,-28.77 26.45,-45.06l-108.89 -3.48c-9.04,-0.35 -14.69,-0.41 -17.08,-0.1 -5.82,0.74 -11.08,2.3 -15.74,4.63 -4.66,2.34 -8.97,5.74 -12.93,10.31l-3.07 3.54 -11.94 -10.35 39.15 -45.2 157.5 9.48 21.95 -25.34 -61.17 -52.99c-6.8,-5.89 -11.28,-9.35 -13.36,-10.38 -4.13,-1.71 -7.84,-2.03 -11.13,-0.89 -3.33,1.2 -7.88,5.07 -13.64,11.72l-4.38 5.05 -11.94 -10.34 65.35 -75.45 11.94 10.35 -5.89 6.8c-4.42,5.1 -7.02,8.79 -7.91,11.08 -0.83,2.34 -1.01,4.9 -0.54,7.69 0.43,2.84 1.68,5.62 3.79,8.38 0.85,1.08 5.48,5.35 13.9,12.8l129.91 112.53c5.78,5 10.41,8 13.9,9.07 3.49,1.07 6.67,1.03 9.56,-0.05 2.84,-1.02 6.44,-4.1 10.78,-9.1l6.98 -8.06 11.94 10.35zm-59.85 37.9l-74.86 -64.84 -35.2 40.63c-11.9,13.74 -19.44,24.21 -22.53,31.21 -4.62,9.94 -5.82,19.77 -3.75,29.64 2.16,9.86 7.91,18.83 17.33,26.99 8.01,6.94 16.14,11.09 24.48,12.54 8.3,1.41 16.29,0.43 23.92,-2.9 7.68,-3.38 16.4,-10.69 26.24,-22.05l44.36 -51.21zm-149.36 194.58l-161.37 139.79 -63.76 -35.94 8.45 -15.55c10.56,5.81 19.76,9.56 27.7,11.18 7.94,1.71 15.98,1.97 24.12,0.87 8.18,-1.05 15.31,-3.32 21.61,-6.74 6.26,-3.47 16.33,-11.17 30.11,-23.11l48.26 -41.8 -63.08 -72.82 -23.98 20.77c-8.84,7.65 -14.18,14.92 -16.09,21.84 -1.95,6.87 -1.86,13.35 0.35,19.33 1.55,4.43 5.92,10.85 13.07,19.1l2.86 3.3 -13.98 12.11 -75.44 -87.09 13.98 -12.11 6.52 7.53c5.76,6.65 10.41,11.04 13.95,13.07 3.54,2.12 7.78,3.29 12.72,3.6 4.94,0.31 9.32,-0.42 13.27,-2.15 3.86,-1.72 9.57,-5.82 16.95,-12.22l23.98 -20.77 -55.68 -64.28c-5.8,-6.7 -9.63,-10.53 -11.52,-11.44 -1.89,-0.91 -3.84,-1.09 -5.83,-0.55 -2.01,0.63 -6.18,3.65 -12.54,9.16l-29.86 25.86c-16.65,14.42 -27.94,27.68 -33.86,39.78 -5.92,12.09 -8.92,25.31 -8.95,39.7 -0.07,11.2 2.36,24.9 7.35,40.96l-16.91 6.66 -31.69 -81.31 167.49 -145.09 10.35 11.94 -5.68 4.92c-6.6,5.72 -10.3,9.69 -11.19,11.9 -1.38,3.41 -1.59,6.99 -0.51,10.9 0.68,2.64 3.77,7.19 9.23,13.5l118.34 136.61c5.38,6.22 9.63,9.84 12.65,10.88 3.02,1.04 6.59,0.84 10.57,-0.65 2.19,-0.71 8.12,-5.25 17.73,-13.57l10.35 11.94zm-232.1 194.8l-82.59 58.73 -9.16 -12.88 7.69 -5.47c5.91,-4.21 9.69,-7.76 11.37,-10.61 1.64,-2.9 2.23,-5.84 1.85,-8.81 -0.42,-2.93 -2.6,-7.21 -6.55,-12.76l-105.93 -148.97c-4.88,-6.86 -8.04,-10.76 -9.49,-11.69 -1.88,-1.42 -4.2,-1.82 -6.8,-1.15 -1.91,0.41 -6.27,3.04 -13.13,7.92l-11.57 8.23c-13.24,9.42 -23.42,19.49 -30.44,30.23 -7.02,10.75 -11.5,22.29 -13.34,34.55 -1.89,12.3 -0.95,28.03 2.83,47.09l-16.93 5.11 -23.73 -84.01 153.84 -109.39 9.16 12.88 -6.75 4.8c-6.54,4.65 -10.53,8.36 -11.96,11.11 -1.43,2.75 -1.82,5.86 -1.22,9.37 0.69,3.53 3.31,8.53 7.88,14.97l103.18 145.1c5.29,7.43 9.4,12 12.28,13.73 2.98,1.75 5.87,2.37 8.79,1.94 2.93,-0.42 7.86,-3.14 14.82,-8.09l6.75 -4.8 9.15 12.88zm-309.38 193.02l-27.9 14.29 -172.42 -158.27c-8.55,-7.96 -15.49,-12.63 -20.76,-13.9 -5.21,-1.3 -10.94,-0.39 -17.06,2.75l-3.72 1.9 -7.2 -14.06 83.06 -42.54 7.2 14.06c-2.57,1.61 -5.09,3.04 -7.66,4.35 -5.37,2.75 -8.63,5.14 -9.73,7.07 -2.18,3.79 -2.4,7.29 -0.76,10.49 1.2,2.35 5.7,7.33 13.5,14.81l38.91 37.08 84.27 -43.16 -7.68 -59.79c-0.81,-6.23 -1.74,-10.3 -2.76,-12.3 -1.14,-2.23 -2.71,-3.88 -4.7,-4.95 -2.08,-1.1 -4.32,-1.54 -6.73,-1.31 -2.44,0.16 -5.9,1.44 -10.36,3.72 -3.03,1.55 -5.51,2.76 -7.46,3.61l-7.2 -14.06 69.85 -35.78 7.2 14.06c-6.46,3.31 -10.82,6.34 -13.01,9.12 -2.21,2.72 -3.62,6.04 -4.27,9.98 -0.68,3.88 -0.41,11.32 0.79,22.25l26.6 230.58zm-37.78 -145.61l-72.09 36.92 87.43 82.08 -15.34 -119zm-271.08 286.23l-99.78 28.33c-30.28,8.6 -51.7,12.61 -64.3,11.98 -15.65,-0.56 -29.74,-5.04 -42.29,-13.5 -12.51,-8.53 -21.22,-21.35 -26.1,-38.53 -4.16,-14.64 -4.17,-28.33 -0.1,-41.03 4.95,-15.23 12.8,-27.34 23.51,-36.19 10.71,-8.85 29.28,-17.06 55.6,-24.53l46.22 -13.12 -18.21 -64.13c-2.76,-9.7 -5.05,-15.66 -6.82,-17.9 -2.48,-3.1 -5.16,-5.01 -8.02,-5.67 -2.93,-0.7 -8.26,0.08 -15.92,2.25l-8.65 2.46 -4.32 -15.2 97.5 -27.68 4.32 15.2 -5.93 1.68c-8.28,2.35 -13.77,4.65 -16.33,6.91 -2.64,2.22 -4.19,4.99 -4.73,8.28 -0.57,3.37 0.32,9.13 2.64,17.28l49.05 172.75c2.28,8.03 4.43,13.23 6.5,15.58 2.03,2.43 4.69,3.81 8.02,4.26 3.27,0.47 9.26,-0.56 17.91,-3.01l5.93 -1.68 4.32 15.2zm-71.57 -0.91l-30.1 -106.03 -38.98 11.07c-19.71,5.6 -33,11.24 -39.91,17.01 -6.97,5.78 -11.8,13.7 -14.53,23.82 -2.73,10.12 -2.47,20.93 0.83,32.55 3.61,12.73 9.64,22.43 18.12,29.24 8.47,6.81 18.32,10.22 29.56,10.3 7.81,-0.01 22.25,-2.98 43.26,-8.95l31.75 -9.02zm-281.94 87.85l-30.86 5.51 -118.63 -201.75c-5.85,-10.11 -11.12,-16.61 -15.79,-19.36 -4.6,-2.77 -10.36,-3.57 -17.12,-2.36l-4.11 0.73 -2.78 -15.55 91.87 -16.41 2.78 15.55c-2.93,0.79 -5.75,1.42 -8.6,1.93 -5.94,1.06 -9.75,2.39 -11.37,3.92 -3.19,2.98 -4.43,6.27 -3.79,9.81 0.46,2.59 3.31,8.68 8.59,18.11l26.37 46.84 93.2 -16.64 10.13 -59.42c1.04,-6.19 1.35,-10.36 0.95,-12.57 -0.44,-2.46 -1.46,-4.5 -3.05,-6.11 -1.67,-1.66 -3.68,-2.73 -6.05,-3.22 -2.38,-0.55 -6.07,-0.35 -11,0.53 -3.35,0.6 -6.08,1.02 -8.19,1.27l-2.78 -15.55 77.26 -13.8 2.78 15.55c-7.14,1.28 -12.2,2.9 -15.11,4.91 -2.91,1.96 -5.22,4.72 -7,8.3 -1.79,3.51 -3.7,10.71 -5.75,21.51l-41.96 228.28zm6.43 -150.3l-79.73 14.24 59.62 104.05 20.11 -118.29zm-207.9 180.71l-103.69 2.62c-31.46,0.8 -53.21,-0.65 -65.26,-4.39 -15.02,-4.44 -27.55,-12.28 -37.61,-23.59 -9.99,-11.38 -15.24,-25.95 -15.69,-43.81 -0.39,-15.21 3,-28.47 10.11,-39.76 8.59,-13.52 19.2,-23.3 31.77,-29.2 12.57,-5.91 32.6,-9.24 59.95,-9.94l48.02 -1.21 -1.69 -66.65c-0.25,-10.08 -0.99,-16.42 -2.15,-19.03 -1.63,-3.62 -3.75,-6.14 -6.36,-7.48 -2.67,-1.41 -8.02,-1.98 -15.98,-1.78l-8.99 0.23 -0.4 -15.8 101.32 -2.56 0.4 15.8 -6.17 0.15c-8.6,0.22 -14.49,1.08 -17.54,2.63 -3.11,1.49 -5.3,3.79 -6.64,6.85 -1.4,3.12 -1.96,8.92 -1.74,17.4l4.54 179.52c0.21,8.35 1,13.92 2.42,16.71 1.36,2.86 3.59,4.86 6.71,6.12 3.05,1.28 9.1,1.76 18.09,1.54l6.17 -0.15 0.4 15.79zm-69.09 -18.68l-2.79 -110.18 -40.52 1.02c-20.48,0.52 -34.76,2.68 -42.88,6.55 -8.19,3.87 -14.84,10.33 -20,19.46 -5.16,9.13 -7.6,19.66 -7.29,31.73 0.34,13.23 3.76,24.13 10.28,32.83 6.52,8.7 15.21,14.45 26.08,17.33 7.56,1.93 22.3,2.65 44.13,2.1l33 -0.83zm-197.42 27.73l-212.88 -16.19 -19.37 -70.59 16.99 -4.96c3.31,11.59 7.12,20.76 11.57,27.54 4.37,6.84 9.85,12.73 16.36,17.74 6.5,5.07 13.14,8.53 20,10.6 6.87,2 19.43,3.73 37.61,5.11l63.66 4.84 7.3 -96.07 -31.64 -2.4c-11.66,-0.89 -20.58,0.43 -26.84,3.95 -6.25,3.45 -10.79,8.07 -13.49,13.85 -2.06,4.22 -3.54,11.84 -4.37,22.73l-0.33 4.35 -18.44 -1.4 8.73 -114.89 18.44 1.4 -0.75 9.92c-0.67,8.77 -0.51,15.17 0.54,19.11 0.99,4 3.14,7.84 6.4,11.57 3.26,3.73 6.86,6.32 10.87,7.91 3.94,1.52 10.87,2.7 20.61,3.44l31.64 2.4 6.45 -84.79c0.67,-8.84 0.69,-14.25 0.01,-16.23 -0.69,-1.99 -1.92,-3.5 -3.71,-4.53 -1.86,-0.99 -6.95,-1.82 -15.34,-2.46l-39.39 -2.99c-21.97,-1.67 -39.33,-0.35 -52.09,3.96 -12.76,4.31 -24.26,11.49 -34.49,21.6 -8,7.83 -16.02,19.2 -23.91,34.06l-16.64 -7.32 35.44 -79.75 220.95 16.8 -1.2 15.75 -7.49 -0.57c-8.71,-0.66 -14.13,-0.5 -16.33,0.43 -3.4,1.42 -6.09,3.79 -8.09,7.31 -1.4,2.34 -2.45,7.73 -3.09,16.06l-13.7 180.22c-0.62,8.2 -0.21,13.77 1.18,16.64 1.39,2.87 4.04,5.27 7.9,7.05 2.05,1.06 9.44,2.06 22.12,3.03l-1.2 15.75zm-302.65 -28.17l-99.77 -17.82 2.78 -15.55 9.29 1.66c7.14,1.28 12.33,1.49 15.53,0.69 3.22,-0.86 5.73,-2.5 7.59,-4.84 1.79,-2.35 3.32,-6.91 4.52,-13.61l32.13 -179.95c1.48,-8.28 2.05,-13.27 1.69,-14.96 -0.3,-2.34 -1.65,-4.27 -3.94,-5.66 -1.64,-1.08 -6.56,-2.35 -14.84,-3.83l-13.97 -2.49c-16,-2.86 -30.31,-3.06 -42.9,-0.55 -12.59,2.52 -23.96,7.4 -34.01,14.67 -10.1,7.26 -20.67,18.95 -31.63,35l-15.51 -8.51 43.34 -75.77 185.83 33.18 -2.78 15.55 -8.15 -1.46c-7.9,-1.41 -13.34,-1.66 -16.3,-0.76 -2.97,0.9 -5.46,2.81 -7.54,5.7 -2.03,2.97 -3.77,8.33 -5.16,16.11l-31.3 175.27c-1.61,8.98 -1.98,15.11 -1.2,18.38 0.84,3.35 2.42,5.85 4.77,7.64 2.35,1.79 7.74,3.4 16.15,4.91l8.16 1.45 -2.78 15.55zm-265.35 -54.96l-202.23 -68.43 -1.27 -73.18 17.69 -0.59c0.33,12.05 1.75,21.88 4.38,29.55 2.55,7.71 6.39,14.78 11.46,21.24 5.05,6.52 10.61,11.52 16.75,15.23 6.16,3.64 17.9,8.43 35.17,14.28l60.47 20.46 30.88 -91.26 -30.05 -10.17c-11.08,-3.75 -20.05,-4.68 -26.98,-2.82 -6.91,1.8 -12.45,5.15 -16.5,10.08 -3.04,3.58 -6.36,10.59 -9.86,20.94l-1.4 4.14 -17.52 -5.93 36.93 -109.15 17.52 5.93 -3.19 9.43c-2.82,8.33 -4.25,14.56 -4.21,18.65 -0.04,4.12 1.1,8.37 3.33,12.79 2.23,4.42 5.08,7.82 8.57,10.36 3.44,2.45 9.86,5.3 19.11,8.43l30.05 10.17 27.26 -80.55c2.84,-8.4 4.2,-13.63 4.03,-15.72 -0.17,-2.09 -1,-3.86 -2.48,-5.31 -1.56,-1.41 -6.28,-3.48 -14.25,-6.18l-37.42 -12.66c-20.87,-7.06 -38.02,-10.09 -51.45,-9.07 -13.43,1.01 -26.35,5.12 -38.77,12.37 -9.69,5.6 -20.28,14.64 -31.6,27.07l-14.31 -11.21 54.09 -68.49 209.9 71.03 -5.06 14.97 -7.12 -2.41c-8.28,-2.8 -13.57,-3.98 -15.93,-3.63 -3.64,0.53 -6.84,2.17 -9.65,5.08 -1.94,1.92 -4.3,6.89 -6.97,14.79l-57.93 171.2c-2.64,7.79 -3.61,13.29 -2.98,16.42 0.64,3.13 2.61,6.11 5.91,8.79 1.72,1.53 8.63,4.34 20.68,8.42l-5.07 14.97zm-300.65 -106.32l-120.1 -61.52c-22.81,-11.68 -38.84,-22.92 -48.08,-33.64 -9.23,-10.72 -14.69,-22.17 -16.39,-34.37 -1.69,-12.2 0.49,-24.21 6.56,-36.05 6.24,-12.17 14.8,-21.43 25.75,-27.73 10.95,-6.3 23.56,-9.22 37.83,-8.76 14.27,0.45 30.97,5.47 50.07,14.96l-22.55 -106.59c-1.81,-8.86 -3.1,-14.36 -3.97,-16.61 -2.1,-5.48 -4.87,-10.22 -8.25,-14.18 -3.38,-3.97 -7.72,-7.34 -13.09,-10.09l-4.17 -2.14 7.2 -14.06 53.22 27.26 28.31 155.22 29.84 15.28 36.89 -72.03c4.1,-8 6.39,-13.18 6.9,-15.45 0.68,-4.41 0.11,-8.1 -1.79,-11.02 -1.96,-2.95 -6.8,-6.44 -14.63,-10.45l-5.95 -3.05 7.2 -14.06 88.84 45.5 -7.2 14.06 -8 -4.1c-6.01,-3.07 -10.21,-4.73 -12.65,-5.04 -2.47,-0.25 -5,0.18 -7.6,1.31 -2.65,1.09 -5.06,2.97 -7.24,5.67 -0.84,1.08 -3.89,6.6 -9.13,16.55l-78.35 152.97c-3.48,6.8 -5.29,12.01 -5.49,15.66 -0.21,3.65 0.59,6.73 2.32,9.27 1.67,2.52 5.52,5.28 11.4,8.3l9.49 4.86 -7.2 14.06zm-51.06 -49.1l45.15 -88.15 -47.85 -24.5c-16.18,-8.29 -28.14,-13.11 -35.68,-14.45 -10.75,-2.11 -20.59,-0.94 -29.68,3.42 -9.06,4.45 -16.41,12.16 -22.09,23.25 -4.83,9.43 -6.93,18.31 -6.35,26.77 0.61,8.39 3.47,15.92 8.51,22.55 5.11,6.66 14.29,13.38 27.67,20.23l60.31 30.89zm-213.69 -90.43l-84.35 -54.08 8.53 -13.3 6.49 4.16c6.06,3.88 11.05,5.86 14.83,5.92 3.83,0.09 7.39,-1.06 10.61,-3.34 3.25,-2.33 7.79,-7.98 13.54,-16.95l91.31 -142.42c4.61,-7.19 7.2,-12.78 7.79,-16.68 0.59,-3.89 0.03,-7.3 -1.5,-10.27 -1.62,-2.94 -5.6,-6.49 -11.99,-10.58l-6.49 -4.16 8.53 -13.3 84.35 54.08 -8.53 13.3 -6.98 -4.47c-6.22,-3.98 -11.1,-6.12 -14.63,-6.33 -3.5,-0.26 -6.65,0.61 -9.58,2.56 -2.87,1.98 -6.83,6.84 -11.78,14.57l-93.18 145.34c-5.3,8.27 -8.28,14.22 -8.95,17.76 -0.65,3.63 -0.16,6.91 1.57,9.93 1.73,3.01 5.75,6.51 11.96,10.49l6.98 4.47 -8.53 13.3zm-29.63 4.8l-3.54 5.52 -43.23 2.8c-14.81,0.96 -25.58,-0.68 -32.39,-5.05 -3.14,-2.01 -5.11,-4.88 -5.82,-8.54 -0.71,-3.66 0.05,-7.22 2.2,-10.57 2.67,-4.16 6.31,-6.63 11.02,-7.43 4.71,-0.8 11.45,0.47 20.29,3.7l51.47 19.57zm-180.37 -147.82l-24.64 -19.37 71.67 -222.8c3.66,-11.1 5,-19.35 3.95,-24.67 -1,-5.28 -4.23,-10.1 -9.63,-14.35l-3.28 -2.58 9.76 -12.42 73.38 57.67 -9.76 12.42c-2.53,-1.67 -4.89,-3.35 -7.16,-5.14 -4.74,-3.73 -8.27,-5.69 -10.49,-5.88 -4.35,-0.4 -7.63,0.87 -9.85,3.69 -1.63,2.07 -4.27,8.24 -7.8,18.46l-17.42 50.85 74.44 58.5 51.1 -31.98c5.31,-3.34 8.63,-5.88 10.02,-7.65 1.55,-1.97 2.39,-4.08 2.53,-6.34 0.13,-2.35 -0.41,-4.57 -1.62,-6.67 -1.17,-2.15 -3.78,-4.76 -7.71,-7.86 -2.68,-2.1 -4.81,-3.86 -6.39,-5.27l9.76 -12.42 61.71 48.49 -9.76 12.42c-5.71,-4.48 -10.29,-7.18 -13.72,-8 -3.4,-0.88 -7,-0.76 -10.85,0.29 -3.81,1 -10.45,4.36 -19.88,10.02l-198.33 120.57zm116.47 -95.21l-63.68 -50.04 -38.01 113.75 101.69 -63.7zm-490.21 -258.14l-8.87 -10.24 48 -68.18 15.43 9.57c-9.85,23.15 -13.72,45.96 -11.54,68.29 1.68,18.52 8.49,34.71 20.47,48.55 7.23,8.35 15.26,14.57 23.98,18.66 8.73,3.99 16.89,5.67 24.51,4.85 7.61,-0.73 13.9,-3.28 18.8,-7.53 4.46,-3.87 7.64,-8.83 9.59,-15.02 1.95,-6.19 2.23,-13.31 0.84,-21.29 -1.34,-7.93 -5.44,-19.42 -12.24,-34.34l-21.53 -46.44c-2.65,-5.7 -5.79,-14.53 -9.49,-26.45 -3.74,-11.97 -5.61,-22.17 -5.54,-30.63 0.02,-8.52 1.88,-16.76 5.64,-24.77 3.72,-8.07 9.15,-15.14 16.23,-21.28 15.73,-13.63 35.44,-18.63 59.18,-15.06 23.74,3.57 45.09,16.34 64.06,38.24 9.76,11.27 16.85,22.79 21.34,34.54 4.44,11.7 6.99,26.32 7.6,43.89l24.76 -9.97 8.66 10 -59.93 75.02 -13.97 -10.84c8.9,-16.21 14.51,-32.29 16.66,-48.25 2.23,-15.96 1.43,-30.81 -2.27,-44.6 -3.79,-13.79 -10.04,-25.71 -18.75,-35.77 -11.86,-13.69 -26.37,-22.11 -43.45,-25.25 -14.29,-2.57 -26.1,0.18 -35.47,8.3 -8.59,7.44 -12.94,16.65 -13.08,27.57 -0.06,11.01 4.56,26.64 13.81,46.84l20.59 44.37c11.51,24.96 16.33,45.43 14.41,61.36 -1.92,15.94 -8.73,28.97 -20.33,39.02 -9.08,7.86 -19.79,12.47 -32.09,13.87 -12.3,1.39 -25.82,-1.17 -40.56,-7.69 -14.7,-6.47 -27.75,-16.24 -39.1,-29.35 -9.5,-10.97 -16.74,-23.14 -21.61,-36.52 -3.47,-9.4 -5.36,-19.24 -5.58,-29.5l-19.15 6.05zm-152.33 -187.43c-13.89,-19.53 -21.72,-40.51 -23.55,-62.93 -2.03,-24.25 1.71,-46.69 11.32,-67.31 9.61,-20.63 25.06,-38.46 46.25,-53.54 32.82,-23.34 66.88,-32.19 102.16,-26.46 35.23,5.76 64.13,24.46 86.69,56.18 25.16,35.38 32.62,72.25 22.42,110.55 -8.28,31.35 -26.58,57.05 -54.85,77.15 -20.99,14.92 -43.22,23.56 -66.69,25.91 -23.38,2.36 -46.18,-1.76 -68.29,-12.36 -22.12,-10.6 -40.64,-26.35 -55.46,-47.18zm16.68 -11.79c11.39,16.02 24.81,27.13 40.27,33.47 15.43,6.29 32.71,7.87 51.79,4.79 19.1,-3.18 39.04,-12.16 59.82,-26.93 19.84,-14.11 34.28,-29.49 43.25,-46.12 8.94,-16.68 13,-33.36 12.18,-50.04 -0.86,-16.73 -6.39,-32.26 -16.59,-46.6 -10.12,-14.24 -22.71,-24.28 -37.69,-30.18 -14.99,-5.89 -32.73,-6.91 -53.28,-3.1 -20.54,3.81 -40.22,12.37 -59.12,25.81 -19.16,13.62 -34.07,29.67 -44.89,48.15 -9.3,15.84 -13.6,31.19 -12.87,45.96 0.68,14.8 6.4,29.73 17.12,44.8zm-218.61 -351.22l-6.18 -12.06 67.11 -61.15 12.25 13.21c-13.59,17.57 -22.4,30.09 -26.26,37.62 -6.23,12.21 -9.49,25.14 -9.79,38.79 -0.3,13.65 2.82,26.92 9.41,39.78 7.73,15.09 18.93,26.96 33.49,35.52 14.56,8.56 31.66,12.79 51.25,12.72 19.65,-0.11 39.22,-5.15 58.71,-15.13 20,-10.25 35.85,-23.42 47.41,-39.44 11.62,-16.06 18.15,-33.04 19.64,-50.98 1.46,-18 -1.83,-34.85 -9.91,-50.63 -7.61,-14.86 -19.64,-27.9 -36.03,-39.06 -16.48,-11.19 -35.28,-18.59 -56.37,-22.15l2.32 -18.15c13.83,1.65 26.36,4.69 37.63,9.09 17.99,6.8 33.24,15.73 45.76,26.64 12.46,10.94 22.93,24.62 31.34,41.03 18.59,36.3 20.27,72.68 5.08,109.11 -12.69,30.17 -34.41,53.13 -65.17,68.88 -22.58,11.57 -45.77,16.87 -69.36,15.9 -23.68,-1.01 -45.55,-7.92 -65.69,-20.62 -20.14,-12.7 -35.67,-29.64 -46.48,-50.74 -5.77,-11.26 -9.59,-22.51 -11.45,-33.76 -1.86,-11.24 -1.92,-23.62 -0.19,-37l-18.53 2.56zm-32.16 -93.54l-36.75 -93.21 14.7 -5.79 2.83 7.17c2.64,6.69 5.53,11.22 8.56,13.48 3.05,2.31 6.62,3.47 10.56,3.5 4.01,0.01 10.98,-1.91 20.9,-5.82l157.38 -62.05c7.95,-3.13 13.32,-6.15 16.08,-8.97 2.76,-2.81 4.29,-5.9 4.79,-9.21 0.41,-3.34 -0.75,-8.54 -3.53,-15.59l-2.83 -7.17 14.7 -5.79 36.75 93.21 -14.7 5.8 -3.04 -7.71c-2.71,-6.87 -5.42,-11.46 -8.16,-13.69 -2.69,-2.26 -5.76,-3.39 -9.26,-3.53 -3.48,-0.07 -9.54,1.55 -18.08,4.92l-160.61 63.33c-9.14,3.6 -15.04,6.69 -17.65,9.17 -2.65,2.56 -4.18,5.51 -4.54,8.97 -0.36,3.46 0.85,8.64 3.56,15.51l3.04 7.71 -14.7 5.8zm-84.31 -244.47l-8.56 -30.15 188.91 -138.17c9.48,-6.83 15.42,-12.73 17.69,-17.64 2.29,-4.86 2.52,-10.66 0.64,-17.27l-1.14 -4.02 15.2 -4.32 25.49 89.78 -15.2 4.32c-1.07,-2.84 -1.98,-5.58 -2.77,-8.36 -1.65,-5.81 -3.35,-9.46 -5.04,-10.92 -3.28,-2.87 -6.68,-3.78 -10.14,-2.8 -2.53,0.72 -8.3,4.16 -17.16,10.35l-43.97 30.91 25.86 91.07 60.14 4.16c6.26,0.42 10.44,0.31 12.6,-0.3 2.41,-0.68 4.33,-1.9 5.78,-3.65 1.48,-1.82 2.35,-3.94 2.6,-6.35 0.31,-2.43 -0.26,-6.07 -1.62,-10.89 -0.93,-3.27 -1.62,-5.95 -2.08,-8.02l15.2 -4.32 21.44 75.5 -15.2 4.32c-1.98,-6.98 -4.1,-11.85 -6.4,-14.54 -2.24,-2.7 -5.22,-4.73 -8.95,-6.13 -3.67,-1.43 -11.02,-2.62 -21.98,-3.58l-231.33 -18.98zm150.19 -8.6l-22.12 -77.91 -97.59 69.7 119.71 8.21zm-198.12 -191.03l-12.78 -100.54 15.67 -1.99 1.19 9.37c0.91,7.2 2.26,12.21 3.98,15.03 1.78,2.82 4.09,4.72 6.89,5.79 2.78,1.01 7.59,1.11 14.34,0.25l181.34 -23.04c8.35,-1.06 13.28,-2.01 14.79,-2.85 2.14,-0.98 3.59,-2.85 4.23,-5.45 0.54,-1.88 0.28,-6.96 -0.78,-15.31l-1.79 -14.08c-2.05,-16.12 -6.12,-29.84 -12.28,-41.11 -6.16,-11.26 -14.22,-20.66 -24.15,-28.07 -9.95,-7.47 -24.26,-14.08 -42.85,-19.74l3.5 -17.34 85.25 18.75 23.8 187.26 -15.68 1.99 -1.04 -8.22c-1.01,-7.96 -2.39,-13.23 -4.15,-15.79 -1.75,-2.56 -4.31,-4.37 -7.69,-5.5 -3.44,-1.05 -9.08,-1.11 -16.91,-0.12l-176.62 22.44c-9.05,1.15 -15.01,2.62 -17.9,4.35 -2.94,1.8 -4.86,4.05 -5.86,6.83 -1.01,2.78 -0.94,8.41 0.14,16.88l1.04 8.22 -15.67 1.99z"/>
    <g>
     <path class="fil1" d="M2980.4 4013.15c-31.44,125.75 -102.17,200.42 -196.49,200.42 -113.97,0 -180.77,-113.96 -180.77,-286.87 0,-310.45 200.42,-400.84 416.56,-554.1 -3.93,212.21 -35.37,440.13 -39.3,640.55zm11.79 263.29c27.51,157.19 94.31,263.29 255.43,263.29l400.84 0c110.03,0 180.77,-78.59 180.77,-208.28 0,-196.49 -251.5,-149.33 -172.91,-719.15 94.31,-719.15 -239.72,-1143.57 -994.23,-1143.57 -231.86,0 -514.8,39.3 -652.34,204.35 -110.03,137.54 -161.12,408.7 70.74,542.31 176.84,106.1 463.71,90.38 475.5,-239.72 7.86,-227.93 145.4,-310.45 227.93,-310.45 121.82,0 208.28,200.42 231.86,514.8 -318.31,294.73 -1182.86,243.65 -1182.86,856.69 0,322.24 243.65,542.31 597.32,542.31 271.15,0 451.92,-133.61 561.96,-302.59z"/>
     <g>
      <path class="fil2" d="M3534.51 2659.51l8.1 -50.4c30.36,-14.72 61.78,-21.08 94.58,-32.28 35.81,-12.23 58.81,-20.76 93.76,-32.66 58.61,-19.94 123.67,-60.19 180.69,-78.45 71.03,-22.76 161.33,-4.77 214.29,46.29 47.52,45.81 81.95,107.61 71.85,186.51 -12.53,98.04 -43.61,141.15 -105.84,178.32 -115.98,69.25 -215.61,17.63 -302.1,-54.87l-168.73 -111.96c-30.28,-17.88 -57.19,-26.54 -86.6,-50.49z"/>
      <path class="fil2" d="M3373.21 2524.25c-28.99,-34.74 -12.99,-65.4 -2.34,-95.35 71.01,-199.72 71.73,-213.06 121.66,-422.72l36.15 -177.56c48.7,-120.34 107.73,-194.5 246.18,-247.2 131.54,-50.08 280.7,-10.05 365.12,51.91 198.34,145.57 240.67,450.11 13.14,639.79 -50.35,41.97 -123.69,61.97 -195.67,79.84 -151.69,37.65 -311.08,104.54 -453.09,166.38 -27.01,11.77 -83.03,62.58 -131.16,4.92z"/>
      <path class="fil2" d="M2896.07 1942.17c-16.28,-100.37 25.96,-210.99 118.94,-271.43 101.94,-66.26 260.69,-69.31 316.98,1.55 25.55,-1.68 102.88,90.7 120,175.27 25.07,123.86 -54.41,220.33 -109.45,352.03l-63.26 170.68c5.43,51.97 -47.54,111.03 -98.25,59.55 -15.01,-15.24 -35.47,-63.39 -48.03,-88.9 -29.41,-59.76 -32.54,-49.29 -47.9,-78.58 -55.58,-106 -170.9,-208.39 -189.03,-320.16z"/>
     </g>
    </g>
   </g>
  </g>
 </g>
</svg>
