<?xml version="1.0" encoding="UTF-8"?>
<!DOCTYPE svg PUBLIC "-//W3C//DTD SVG 1.1//EN" "http://www.w3.org/Graphics/SVG/1.1/DTD/svg11.dtd">
<!-- Creator: CorelDRAW 2021 (64-Bit) -->
<svg xmlns="http://www.w3.org/2000/svg" xml:space="preserve" width="175.058mm" height="175.058mm" version="1.1" style="shape-rendering:geometricPrecision; text-rendering:geometricPrecision; image-rendering:optimizeQuality; fill-rule:evenodd; clip-rule:evenodd"
viewBox="0 0 8513.84 8513.84"
 xmlns:xlink="http://www.w3.org/1999/xlink"
 xmlns:xodm="http://www.corel.com/coreldraw/odm/2003">
 <defs>
  <style type="text/css">
   <![CDATA[
    .str0 {stroke:#9BD9D8;stroke-width:3.71;stroke-miterlimit:22.9256}
    .fil8 {fill:#9AD2CF}
    .fil0 {fill:#EBABC3}
    .fil1 {fill:white}
    .fil9 {fill:black;fill-rule:nonzero}
    .fil3 {fill:#9BD9D8;fill-rule:nonzero}
    .fil6 {fill:#9DD0D1;fill-rule:nonzero}
    .fil7 {fill:#C8ACE6;fill-rule:nonzero}
    .fil4 {fill:#D2ABEE;fill-rule:nonzero}
    .fil2 {fill:#EBABC3;fill-rule:nonzero}
    .fil5 {fill:#F7C5A2;fill-rule:nonzero}
   ]]>
  </style>
 </defs>
 <g id="Capa_x0020_1">
  <metadata id="CorelCorpID_0Corel-Layer"/>
  <g id="_1990782753136">
   <circle class="fil0" cx="4256.92" cy="4256.92" r="4256.92"/>
   <g>
    <g>
     <path class="fil1" d="M7023.77 5492.05c-27.48,119.09 -124.06,206.51 -256.32,206.51l-192.56 0c-59.53,0 -110.6,-14.33 -153,-39.8 -71.19,38.5 -152.35,58.68 -239.68,58.68 -95.12,0 -183.75,-24.02 -257.55,-67.8 -43.04,30.9 -96.4,48.92 -155.89,48.92l-332.26 0c-74.79,0 -139.7,-29.03 -186.48,-76.37 -96.49,62.07 -216.67,95.25 -349.67,95.25 -376.17,0 -636.93,-252.22 -667.2,-612.25 -8.38,0.51 -16.89,0.71 -25.51,0.58 -34.99,-0.18 -68.82,-5.97 -100.49,-16.67 6.94,34.35 18,67.59 33.87,103.04 35.78,79.91 74.01,142.45 74.01,234.61 0,151.9 -112.65,271.82 -266.16,271.82l-332.26 0c-152.72,0 -264.26,-121.05 -264.26,-271.82 0,-92.17 38.19,-154.76 74.3,-234.56 29.75,-65.75 42.74,-123.17 42.74,-195.87 0,-28.68 -0.57,-78.02 -19.99,-102.46 -58.75,-73.91 -97.05,-111.71 -97.05,-218.48 0,-12.5 0.7,-24.51 2.06,-36.05 -57.77,-29.11 -103.51,-73.73 -137.32,-129.57 -105.97,107.12 -260.07,165.72 -436.83,165.72 -133.96,0 -253.29,-31.99 -352.78,-89.44 -42.77,43.49 -103.84,70.56 -175.81,70.56l-362.47 0c-122.15,0 -237.03,-78.54 -279.48,-192.78 -43.35,113.19 -157.72,192.78 -279.32,192.78l-202 0c-169.28,0 -277.63,-149.35 -230.75,-310.16 0.54,-1.85 1.03,-3.43 1.63,-5.27 26.01,-79.88 93.6,-149.61 143.98,-216.04 57.9,-76.34 102.09,-153.39 131.23,-245.21l162.36 -511.61c7.3,-22.97 11.64,-50.31 16.55,-74.04 8.98,-43.41 19.09,-86.22 34.82,-127.79 52.54,-138.87 160.21,-229.65 314.08,-229.65l60.41 0c171.23,0 278.02,117.85 303.63,280.02 8.81,55.77 26.22,111.67 39.97,166.47l74.65 281.23c107.29,-221.65 329.07,-357.7 614.41,-357.7 125.01,0 265.44,26.6 368.65,102.82 46.28,-23.65 101.01,-36.65 158.45,-40.19 36.08,-2.22 90.51,-11.01 123.74,-24.01 1.16,-0.46 2.14,-0.83 3.32,-1.26 124.99,-46.05 230.71,-18.87 295.34,55.71 41.64,-17.56 88.96,-27.43 138.43,-30.45 36.06,-2.2 90.39,-11.01 123.6,-24 1.16,-0.45 2.15,-0.83 3.32,-1.26 133.55,-49.19 245.1,-14.79 308.04,71.69 98.95,-78.05 233.18,-104.38 358.55,-108.47 -31.11,-80.21 0.21,-173.77 77,-217.92l88.98 -51.16c34.61,-19.9 72.18,-38.82 111.5,-46.91 26.32,-5.43 52.93,-6.85 79.17,-4.19 20.83,-36.44 54.64,-64.64 97.3,-79.08l29.38 -9.94c32.9,-11.13 66.6,-12.55 98.03,-5.14 24.57,-24.05 56.33,-41.24 92.6,-47.71l101.04 -18.04c39.31,-7.02 81.06,-12.11 120.82,-6.41 1.54,0.22 3.06,0.45 4.59,0.7 27.89,-16.76 60.68,-26.06 95.5,-25.18l211.18 5.33c24.29,0.62 47.32,5.84 68.2,15.01 19.38,-3.22 39.6,-3.25 60,0.39l98.73 17.63c34.59,6.18 65.09,22.09 89.16,44.42 38.01,-12.53 80.41,-12.4 120.41,3.38l196.53 77.48c22.12,8.72 41.58,21.16 57.83,36.47 27.41,2.49 54.62,11.4 79.32,27.24l112.4 72.07c30.11,19.31 58.43,41.67 81.32,69.16 4.27,0.05 8.59,0.25 12.94,0.59l42.73 3.38c49.23,3.9 95.36,19.52 133.19,52.3 39.46,34.18 63.05,82.69 65.54,134.84 0.4,8.42 0.24,16.83 -0.48,25.15 13.63,9 26.26,20.04 37.53,33.04l20.31 23.44c49.52,57.18 57.82,135.26 21.4,201.57l-11.89 21.65c16.11,-1.24 32.41,-0.83 48.69,1.26 45.33,5.81 86.79,24.59 122.84,52.34 33.84,26.04 60.88,59.14 80.34,97.12 8.5,16.59 15.38,33.84 20.58,51.61 3.53,5.42 6.81,11.08 9.83,16.98l6.11 11.93c20.49,40.03 24.86,84.03 14.53,124.56 2.33,2.21 4.63,4.46 6.91,6.75 38.65,38.87 65.96,86.26 80.93,139 14.95,52.66 15.96,107.42 1.95,160.34 -3.96,14.98 -8.94,29.55 -14.92,43.62 8.09,9.09 15.7,18.71 22.78,28.82 31.72,45.31 50.35,97.25 54.54,152.41 1.41,18.51 1.15,37.1 -0.88,55.51 1.05,5.97 1.81,12.06 2.29,18.24l1.02 13.37c1.83,24.13 -1.07,47.52 -8.06,69.17 3.9,16.96 5.34,34.76 3.95,52.99l-7.52 98.86c-2.72,35.76 -15.96,68.28 -36.44,94.76 11.39,31.31 13.7,66.05 5.64,100.97l-6.97 30.22c-7.33,31.73 -22.28,59.57 -42.94,81.76 8.4,34.37 6.66,71.56 -7.26,106.85l-36.79 93.3c-35.84,90.91 -139.22,135.82 -230.12,99.98l-11.21 -4.42c-31.33,35.14 -71.14,54.74 -118.56,58.35 -39.18,2.98 -74.87,-5.63 -106.55,-25.62zm-34.55 -583.55c-11.53,2.73 -23.06,4.64 -34.55,5.77 2.71,44.03 1.97,90.22 -2.36,138.37l2.25 -5.71 19.24 -83.33c3.4,-14.72 8.56,-28.6 15.21,-41.46 -0.11,-4.52 -0.03,-9.08 0.21,-13.65zm-215.31 -977.58c-1.69,-1.79 -3.34,-3.62 -4.97,-5.49l-60.46 -69.8c-9.89,-11.43 -18.07,-23.77 -24.54,-36.72 -11.89,-8.25 -22.94,-18.1 -32.83,-29.52l-24.07 -27.78c-8.87,-5.28 -17.4,-11.41 -25.47,-18.39l-74.95 -64.92c-6.32,-5.48 -12.17,-11.32 -17.52,-17.45l-22.38 -14.34c-14.42,-9.24 -27.04,-19.93 -37.79,-31.9 -14.99,-4.62 -29.6,-11.3 -43.43,-20.17l-80.38 -51.54c-8.77,-2.04 -17.51,-4.75 -26.15,-8.16l-197.4 -77.82c-4.52,-0.47 -9.07,-1.11 -13.62,-1.93l-183.87 -32.83c-7.95,-1.42 -15.67,-3.35 -23.16,-5.76 -1.5,0 -3.01,-0.02 -4.52,-0.06l-219.2 -5.54c-11.63,-0.3 -22.98,-1.71 -33.94,-4.14 -19.38,12.69 -41.56,21.77 -65.74,26.09l-98.72 17.63c-6.77,1.21 -13.53,2.01 -20.24,2.43l-62.01 20.99c-14.32,4.84 -28.85,7.75 -43.28,8.84 -12.13,7.89 -25.43,14.4 -39.74,19.24l-49.15 16.63c104.6,125.92 149.79,303.11 125.1,518.07 30.13,-8.61 62.38,-13.85 95.75,-15.91 38.73,-2.39 91.09,-11.26 128.01,-23.75 206.87,-77.76 362.4,48.26 362.4,259.36 0,57.99 -9.8,116.51 -17.71,174.19 89.62,-54.6 199.96,-75.71 305.23,-80.52 -5.38,-15.4 -9.56,-31.41 -12.29,-48.26 -19.35,-119.28 34.09,-241.6 135.57,-307.56 91.55,-59.51 221.95,-72.84 318.24,-19.61 23.87,-15.63 50.52,-29.01 80.36,-40.37 2.93,-1.12 5.88,-2.19 8.85,-3.22zm-5171.67 291.79c0.84,-11.6 1.38,-23.01 1.61,-34.3l-8.48 0c1.48,8.9 3.24,17.97 5.29,27.27 0.52,2.35 1.05,4.7 1.57,7.03zm1258.12 -184.46c14.22,16.36 28.45,27.52 40.75,27.52 10.08,0 16.6,-8.72 20.07,-17.41 -20.82,-1.43 -41.17,-4.83 -60.81,-10.11z"/>
    </g>
    <g>
     <g>
      <path class="fil2" d="M1453.11 3912.82l156.7 -490.84 132.15 490.84 -288.85 0zm437.98 -668.3c-13.21,-81.18 -50.97,-130.26 -128.37,-130.26l-60.41 0c-166.13,0 -164.24,203.89 -196.34,307.72l-162.36 511.61c-84.95,260.52 -249.19,381.34 -275.62,462.52 -13.21,45.31 7.55,83.07 60.41,83.07l202 0c50.97,0 100.05,-37.75 115.16,-83.07 22.65,-73.63 -64.18,-177.46 -20.77,-385.12l339.81 0c43.42,218.99 -13.21,311.49 9.44,385.12 13.21,45.31 62.3,83.07 115.16,83.07l362.47 0c52.86,0 73.62,-37.75 60.41,-83.07 -24.55,-81.18 -169.9,-185.01 -239.76,-449.31l-137.81 -519.15c-13.22,-52.86 -33.98,-120.82 -43.43,-183.12z"/>
      <path class="fil3 str0" d="M3189.94 4135.59c1.89,-69.85 -11.33,-86.84 -24.54,-96.29 -26.43,-11.33 -58.53,9.44 -75.51,64.19 -26.43,77.41 -96.28,139.7 -188.78,139.7 -111.39,0 -207.66,-94.39 -277.52,-256.75 -88.72,-198.22 -83.06,-375.68 35.87,-405.89 81.18,-22.65 149.14,37.76 152.92,147.26 5.67,158.58 141.59,166.13 230.32,115.16 109.5,-64.19 113.27,-198.23 33.98,-275.63 -56.64,-52.86 -160.46,-83.06 -281.29,-83.06 -305.83,0 -507.84,194.45 -507.84,507.83 0,311.49 202,505.94 492.73,505.94 245.42,0 400.23,-137.82 409.66,-362.47z"/>
      <path class="fil4" d="M3597.72 3948.69c0,-145.36 37.75,-249.19 37.75,-343.58 0,-64.19 -16.99,-134.04 -124.6,-94.39 -43.42,16.99 -117.05,32.09 -177.46,35.87 -92.5,5.67 -126.48,33.98 -126.48,86.84 0,103.83 117.04,77.4 117.04,320.93 0,203.89 -52.86,545.59 202,545.59 130.27,0 264.3,-84.95 345.48,-251.08 -3.77,39.64 -7.55,73.62 -7.55,103.83 0,88.73 35.86,126.49 88.72,126.49l234.09 0c52.86,0 86.84,-37.75 86.84,-94.39 0,-100.06 -117.04,-186.9 -117.04,-436.1 0,-145.36 39.65,-249.19 39.65,-343.58 0,-64.19 -16.99,-134.04 -124.6,-94.39 -43.42,16.99 -117.04,32.09 -177.46,35.87 -94.39,5.67 -126.49,33.98 -126.49,86.84 0,103.83 115.16,77.4 115.16,424.76 0,9.44 0,18.88 0,28.32 -49.08,145.36 -130.26,166.13 -168.02,166.13 -107.6,0 -117.04,-169.9 -117.04,-303.95z"/>
      <path class="fil5" d="M4866.35 4226.21c-15.1,60.41 -49.09,96.28 -94.39,96.28 -54.75,0 -86.84,-54.74 -86.84,-137.81 0,-149.14 96.28,-192.56 200.12,-266.19 -1.89,101.95 -16.99,211.44 -18.88,307.72zm5.66 126.48c13.22,75.51 45.31,126.49 122.71,126.49l192.56 0c52.86,0 86.84,-37.75 86.84,-100.06 0,-94.39 -120.82,-71.74 -83.06,-345.48 45.31,-345.48 -115.16,-549.36 -477.63,-549.36 -111.38,0 -247.31,18.88 -313.39,98.17 -52.86,66.07 -77.4,196.34 33.98,260.53 84.95,50.97 222.77,43.42 228.43,-115.16 3.78,-109.5 69.85,-149.14 109.5,-149.14 58.52,0 100.06,96.28 111.38,247.31 -152.91,141.59 -568.24,117.05 -568.24,411.55 0,154.8 117.04,260.53 286.95,260.53 130.26,0 217.1,-64.19 269.96,-145.37z"/>
     </g>
     <g>
      <path class="fil2" d="M3616.64 5521.14l332.26 0c52.86,0 88.73,-37.75 88.73,-94.39 0,-100.06 -117.05,-186.9 -117.05,-436.1 0,-28.31 1.89,-50.97 3.77,-75.51 18.88,-103.83 52.86,-141.58 90.62,-141.58 35.87,0 56.64,28.31 66.07,62.3 20.77,66.08 79.29,92.51 128.38,92.51 96.28,1.89 168.02,-90.62 168.02,-202 0,-92.51 -50.97,-200.11 -188.78,-200.11 -98.17,0 -175.57,58.52 -234.09,171.79 1.89,-16.99 3.77,-35.87 3.77,-50.97 0,-64.19 -16.99,-134.04 -124.6,-94.39 -43.43,16.99 -117.05,32.09 -177.46,35.87 -92.51,5.67 -126.49,33.98 -126.49,86.84 0,103.83 117.04,77.4 117.04,320.93 0,243.53 -117.04,330.37 -117.04,430.43 0,56.64 35.87,94.39 86.84,94.39z"/>
      <path class="fil6" d="M4755.01 5056.73c-3.77,-9.44 -7.55,-16.99 -11.33,-28.32 -88.73,-198.22 -83.06,-375.68 35.87,-405.89 81.18,-22.65 151.03,37.76 151.03,177.46 0,96.28 -35.87,235.98 -175.57,256.75zm555.03 120.82c1.89,-69.85 -11.33,-86.84 -24.55,-96.29 -26.43,-11.33 -58.52,9.44 -75.51,64.19 -26.43,77.41 -96.28,139.7 -188.78,139.7 -90.62,0 -169.9,-60.41 -235.98,-169.9 409.66,-9.44 485.18,-239.76 485.18,-343.59 0,-168.02 -196.34,-245.41 -375.68,-245.41 -285.07,0 -487.06,194.45 -487.06,507.83 0,311.49 202,505.94 492.73,505.94 245.42,0 400.23,-137.82 409.67,-362.47z"/>
      <path class="fil7" d="M5436.52 5521.14l332.26 0c52.86,0 88.72,-37.75 88.72,-94.39 0,-100.06 -117.04,-186.9 -117.04,-683.4 0,-286.95 37.75,-392.67 37.75,-487.06 0,-64.19 -16.99,-134.04 -124.6,-92.5 -43.42,15.1 -117.05,30.21 -177.45,33.98 -92.51,5.66 -126.49,33.98 -126.49,88.73 0,103.83 117.04,75.51 117.04,515.38 0,437.98 -117.04,524.82 -117.04,624.88 0,56.64 35.87,94.39 86.84,94.39z"/>
      <path class="fil2" d="M6446.52 5268.17c-15.1,60.41 -49.09,96.28 -94.39,96.28 -54.74,0 -86.84,-54.74 -86.84,-137.81 0,-149.14 96.29,-192.56 200.12,-266.19 -1.89,101.95 -16.99,211.44 -18.88,307.72zm5.67 126.48c13.21,75.51 45.31,126.49 122.71,126.49l192.56 0c52.86,0 86.84,-37.75 86.84,-100.06 0,-94.39 -120.82,-71.74 -83.06,-345.48 45.31,-345.48 -115.16,-549.36 -477.62,-549.36 -111.39,0 -247.32,18.88 -313.39,98.17 -52.86,66.07 -77.41,196.33 33.98,260.52 84.95,50.97 222.77,43.42 228.43,-115.16 3.78,-109.5 69.85,-149.14 109.5,-149.14 58.53,0 100.06,96.28 111.39,247.31 -152.92,141.59 -568.25,117.05 -568.25,411.55 0,154.8 117.04,260.53 286.95,260.53 130.26,0 217.1,-64.19 269.97,-145.37z"/>
      <g>
       <path class="fil8" d="M6712.72 4617.88l3.89 -24.21c14.59,-7.07 29.68,-10.13 45.43,-15.5 17.2,-5.88 28.25,-9.97 45.04,-15.69 28.15,-9.58 59.41,-28.91 86.8,-37.69 34.12,-10.94 77.5,-2.3 102.94,22.24 22.83,22.01 39.36,51.7 34.52,89.6 -6.03,47.1 -20.95,67.81 -50.85,85.66 -55.72,33.27 -103.58,8.47 -145.13,-26.36l-81.06 -53.78c-14.54,-8.59 -27.47,-12.75 -41.6,-24.26z"/>
       <path class="fil8" d="M6635.23 4552.9c-13.92,-16.69 -6.24,-31.42 -1.12,-45.81 34.11,-95.95 34.46,-102.35 58.44,-203.07l17.37 -85.3c23.4,-57.81 51.75,-93.44 118.27,-118.76 63.19,-24.06 134.84,-4.83 175.4,24.93 95.28,69.93 115.62,216.23 6.31,307.35 -24.19,20.16 -59.42,29.77 -94,38.36 -72.87,18.09 -149.44,50.22 -217.66,79.93 -12.98,5.65 -39.89,30.07 -63.01,2.36z"/>
       <path class="fil8" d="M6406.01 4273.27c-7.82,-48.22 12.47,-101.36 57.14,-130.39 48.97,-31.84 125.23,-33.3 152.27,0.74 12.27,-0.81 49.42,43.58 57.64,84.2 12.05,59.5 -26.14,105.84 -52.57,169.11l-30.39 81.99c2.61,24.97 -22.83,53.34 -47.2,28.61 -7.21,-7.32 -17.04,-30.45 -23.07,-42.71 -14.13,-28.7 -15.63,-23.68 -23.01,-37.75 -26.7,-50.92 -82.1,-100.11 -90.81,-153.81z"/>
      </g>
     </g>
     <path class="fil9" d="M4842.26 3243.33l88.98 -51.16c27,-15.52 46.6,-24.52 58.85,-26.94 15.16,-3.22 29.76,-2.3 43.84,2.8 14.05,5.19 25.49,15.4 34.3,30.72 7.5,13.06 10.8,26.19 9.95,39.36 -1.09,15.81 -5.72,29.32 -13.88,40.38 -8.16,11.06 -24.01,23.41 -47.47,36.9l-41.22 23.69 32.89 57.18c4.97,8.65 8.6,13.83 10.84,15.54 3.13,2.38 6.16,3.57 9.06,3.52 2.99,-0.03 7.91,-2.05 14.74,-5.98l7.72 -4.44 7.79 13.55 -86.94 49.99 -7.79 -13.55 5.29 -3.04c7.38,-4.25 12.1,-7.77 14.02,-10.56 2,-2.76 2.82,-5.8 2.54,-9.08 -0.25,-3.37 -2.5,-8.68 -6.68,-15.96l-88.58 -154.04c-4.11,-7.16 -7.42,-11.64 -9.97,-13.4 -2.53,-1.84 -5.42,-2.53 -8.73,-2.16 -3.26,0.33 -8.75,2.76 -16.46,7.19l-5.29 3.04 -7.8 -13.55zm68.92 -16.31l54.36 94.55 34.76 -19.99c17.58,-10.11 28.98,-18.71 34.22,-25.91 5.31,-7.23 8.04,-15.99 8.23,-26.36 0.2,-10.37 -2.66,-20.69 -8.61,-31.04 -6.53,-11.35 -14.64,-19.22 -24.41,-23.72 -9.77,-4.5 -20.05,-5.41 -30.85,-2.78 -7.49,1.88 -20.65,8.2 -39.38,18.97l-28.31 16.28zm276.45 -150.77l29.38 -9.94 145.82 179.92c7.21,9.03 13.33,14.61 18.31,16.61 4.92,2.03 10.66,1.96 17.1,-0.22l3.92 -1.32 5.01 14.81 -87.47 29.6 -5.01 -14.81c2.75,-1.2 5.42,-2.24 8.13,-3.16 5.66,-1.91 9.19,-3.78 10.55,-5.51 2.67,-3.39 3.4,-6.78 2.26,-10.16 -0.84,-2.47 -4.52,-8 -11.06,-16.45l-32.71 -41.94 -88.74 30.02 -1.16 59.64c-0.11,6.22 0.21,10.33 0.92,12.44 0.8,2.35 2.09,4.2 3.88,5.53 1.88,1.38 4.01,2.13 6.41,2.26 2.41,0.19 5.99,-0.55 10.68,-2.14 3.19,-1.08 5.8,-1.9 7.83,-2.45l5.01 14.8 -73.56 24.9 -5.01 -14.81c6.8,-2.3 11.52,-4.63 14.06,-7.04 2.56,-2.34 4.42,-5.38 5.63,-9.14 1.23,-3.71 2.03,-11.02 2.45,-21.9l7.4 -229.55zm15.86 148.01l75.91 -25.69 -73.68 -93.01 -2.24 118.71zm178.48 -204.2l101.04 -18.04c30.65,-5.47 52.15,-7.3 64.49,-5.44 15.35,2.1 28.78,7.9 40.31,17.46 11.46,9.64 18.78,23.12 21.88,40.52 2.65,14.82 1.31,28.3 -3.95,40.41 -6.38,14.5 -15.3,25.65 -26.72,33.3 -11.41,7.66 -30.51,13.9 -57.16,18.67l-46.8 8.36 11.59 64.94c1.76,9.82 3.42,15.92 4.95,18.3 2.14,3.3 4.58,5.44 7.34,6.37 2.82,0.98 8.14,0.75 15.89,-0.64l8.76 -1.56 2.75 15.39 -98.72 17.63 -2.75 -15.39 6.01 -1.07c8.38,-1.5 14.01,-3.22 16.76,-5.19 2.82,-1.93 4.62,-4.5 5.47,-7.69 0.9,-3.26 0.59,-9.02 -0.89,-17.27l-31.24 -174.93c-1.44,-8.14 -3.04,-13.46 -4.85,-15.99 -1.76,-2.59 -4.24,-4.22 -7.48,-4.99 -3.18,-0.79 -9.17,-0.36 -17.93,1.2l-6 1.07 -2.75 -15.39zm70.37 7.97l19.17 107.36 39.48 -7.05c19.95,-3.56 33.59,-7.8 40.96,-12.8 7.43,-5 12.97,-12.32 16.66,-22.02 3.69,-9.69 4.5,-20.36 2.4,-32.12 -2.3,-12.89 -7.28,-23.04 -14.95,-30.59 -7.67,-7.53 -17.04,-11.87 -28.09,-13.05 -7.69,-0.76 -22.2,0.73 -43.48,4.53l-32.16 5.74zm215.91 -54.21l211.18 5.34 22.67 68.79 -16.55 5.75c-3.85,-11.29 -8.07,-20.17 -12.81,-26.65 -4.66,-6.54 -10.37,-12.09 -17.06,-16.7 -6.68,-4.69 -13.4,-7.78 -20.29,-9.48 -6.89,-1.64 -19.39,-2.72 -37.43,-3.17l-63.15 -1.6 -2.41 95.3 31.39 0.79c11.56,0.29 20.31,-1.46 26.32,-5.25 6.01,-3.72 10.26,-8.51 12.63,-14.36 1.83,-4.27 2.91,-11.88 3.18,-22.68l0.11 -4.32 18.29 0.46 -2.87 113.98 -18.3 -0.46 0.25 -9.84c0.22,-8.71 -0.26,-15.01 -1.49,-18.86 -1.17,-3.91 -3.49,-7.59 -6.91,-11.11 -3.4,-3.52 -7.1,-5.9 -11.13,-7.28 -3.97,-1.31 -10.88,-2.12 -20.53,-2.36l-31.38 -0.79 -2.13 84.12c-0.23,8.77 0.02,14.11 0.8,16.04 0.77,1.92 2.07,3.36 3.89,4.29 1.89,0.88 6.96,1.45 15.28,1.66l39.08 0.99c21.79,0.55 38.88,-1.62 51.28,-6.53 12.39,-4.9 23.39,-12.57 33,-23.07 7.52,-8.14 14.87,-19.78 21.92,-34.86l16.82 6.4 -31.02 80.59 -219.19 -5.54 0.39 -15.63 7.43 0.19c8.64,0.22 13.99,-0.22 16.11,-1.25 3.28,-1.58 5.83,-4.05 7.63,-7.63 1.27,-2.38 2.04,-7.76 2.25,-16.03l4.52 -178.78c0.2,-8.14 -0.49,-13.62 -2,-16.39 -1.52,-2.77 -4.26,-5 -8.16,-6.56 -2.07,-0.94 -9.43,-1.58 -22.01,-1.89l0.4 -15.63zm312.67 18.02l98.73 17.63 -2.75 15.39 -9.2 -1.64c-7.07,-1.26 -12.2,-1.47 -15.38,-0.68 -3.19,0.85 -5.67,2.47 -7.5,4.79 -1.77,2.33 -3.29,6.84 -4.47,13.47l-31.79 178.06c-1.46,8.2 -2.02,13.14 -1.68,14.81 0.3,2.31 1.63,4.23 3.91,5.6 1.62,1.07 6.5,2.32 14.69,3.79l13.83 2.47c15.83,2.82 30,3.03 42.44,0.54 12.46,-2.49 23.71,-7.32 33.65,-14.52 10,-7.19 20.46,-18.75 31.3,-34.63l15.34 8.42 -42.89 74.98 -183.87 -32.83 2.75 -15.39 8.07 1.44c7.83,1.4 13.2,1.64 16.13,0.75 2.94,-0.89 5.4,-2.78 7.47,-5.64 2.01,-2.93 3.74,-8.24 5.11,-15.94l30.96 -173.43c1.59,-8.89 1.96,-14.95 1.19,-18.19 -0.83,-3.31 -2.39,-5.78 -4.72,-7.56 -2.33,-1.77 -7.66,-3.37 -15.98,-4.85l-8.08 -1.44 2.75 -15.39zm274.41 55.82l196.53 77.48 -2.31 72.4 -17.51 -0.28c0.26,-11.92 -0.66,-21.71 -2.89,-29.42 -2.14,-7.74 -5.59,-14.92 -10.29,-21.55 -4.67,-6.7 -9.93,-11.91 -15.81,-15.86 -5.92,-3.91 -17.28,-9.21 -34.07,-15.83l-58.77 -23.17 -34.97 88.68 29.21 11.52c10.76,4.25 19.59,5.6 26.53,4.1 6.92,-1.43 12.56,-4.47 16.79,-9.16 3.18,-3.38 6.8,-10.16 10.76,-20.21l1.59 -4.02 17.03 6.71 -41.82 106.07 -17.03 -6.71 3.61 -9.16c3.2,-8.1 4.91,-14.19 5.07,-18.23 0.24,-4.07 -0.68,-8.33 -2.67,-12.8 -1.99,-4.47 -4.64,-7.98 -7.96,-10.66 -3.28,-2.59 -9.49,-5.72 -18.48,-9.26l-29.21 -11.52 -30.86 78.28c-3.22,8.16 -4.82,13.27 -4.75,15.34 0.07,2.07 0.8,3.86 2.18,5.36 1.47,1.47 6.04,3.75 13.78,6.8l36.36 14.34c20.28,8 37.08,11.82 50.4,11.47 13.32,-0.35 26.29,-3.78 38.92,-10.34 9.85,-5.06 20.75,-13.47 32.55,-25.22l13.6 11.78 -56.8 65.05 -203.98 -80.42 5.73 -14.55 6.93 2.73c8.04,3.17 13.21,4.59 15.56,4.36 3.62,-0.35 6.86,-1.8 9.78,-4.55 2.01,-1.8 4.59,-6.59 7.61,-14.28l65.6 -166.37c2.98,-7.57 4.22,-12.96 3.74,-16.08 -0.48,-3.13 -2.29,-6.16 -5.41,-8.97 -1.62,-1.59 -8.32,-4.71 -20.03,-9.33l5.73 -14.55zm302.98 125.49l112.41 72.07c21.34,13.69 36.06,26.3 44.13,37.74 8.06,11.43 12.35,23.24 12.85,35.42 0.5,12.17 -2.8,23.8 -9.9,34.87 -7.31,11.4 -16.63,19.69 -28.01,24.85 -11.39,5.16 -24.09,6.83 -38.1,5.01 -14.02,-1.81 -29.98,-8.35 -47.88,-19.53l12.02 107.13c0.93,8.9 1.68,14.45 2.32,16.74 1.54,5.59 3.82,10.53 6.77,14.76 2.95,4.23 6.9,7.97 11.93,11.19l3.91 2.5 -8.44 13.16 -49.81 -31.93 -13.04 -155.58 -27.93 -17.9 -43.22 67.41c-4.81,7.49 -7.56,12.37 -8.28,14.55 -1.08,4.29 -0.88,7.97 0.71,11.03 1.64,3.09 6.08,7 13.41,11.7l5.57 3.57 -8.44 13.16 -83.15 -53.31 8.44 -13.16 7.48 4.8c5.62,3.6 9.61,5.62 11.98,6.17 2.41,0.49 4.95,0.3 7.61,-0.56 2.72,-0.83 5.27,-2.44 7.66,-4.9 0.94,-0.99 4.46,-6.12 10.57,-15.43l91.8 -143.17c4.08,-6.36 6.36,-11.32 6.91,-14.89 0.55,-3.57 0.05,-6.68 -1.4,-9.35 -1.41,-2.64 -4.94,-5.73 -10.45,-9.26l-8.88 -5.69 8.44 -13.17zm45.59 53.25l-52.89 82.49 44.78 28.71c15.14,9.71 26.46,15.61 33.76,17.64 10.38,3.11 20.18,2.9 29.56,-0.53 9.35,-3.52 17.32,-10.41 23.97,-20.79 5.67,-8.83 8.58,-17.38 8.81,-25.76 0.21,-8.33 -1.89,-16.01 -6.23,-23.02 -4.39,-7.04 -12.8,-14.55 -25.31,-22.57l-56.45 -36.19zm208.91 121.5l74.94 64.91 -10.23 11.82 -5.77 -4.99c-5.38,-4.66 -9.98,-7.3 -13.68,-7.89 -3.74,-0.64 -7.39,-0.01 -10.86,1.77 -3.52,1.83 -8.75,6.71 -15.66,14.69l-109.6 126.54c-5.53,6.39 -8.86,11.5 -9.99,15.22 -1.13,3.73 -1.07,7.15 0.01,10.27 1.17,3.11 4.57,7.15 10.24,12.07l5.76 4.99 -10.24 11.82 -74.94 -64.92 10.23 -11.81 6.2 5.36c5.52,4.78 10,7.57 13.44,8.27 3.38,0.74 6.6,0.34 9.74,-1.15 3.09,-1.53 7.65,-5.73 13.6,-12.61l111.84 -129.13c6.37,-7.35 10.13,-12.75 11.28,-16.12 1.15,-3.46 1.14,-6.76 -0.13,-9.95 -1.26,-3.2 -4.71,-7.18 -10.23,-11.97l-6.2 -5.37 10.24 -11.82zm29.7 -0.51l4.25 -4.9 42.73 3.38c14.63,1.16 24.95,4.29 31,9.54 2.79,2.41 4.31,5.51 4.49,9.18 0.18,3.69 -1.07,7.07 -3.65,10.04 -3.21,3.7 -7.12,5.6 -11.85,5.71 -4.72,0.12 -11.14,-2.08 -19.34,-6.49l-47.63 -26.46zm162.63 183.1l20.31 23.45 -111.48 202.99c-5.64,10.1 -8.49,17.86 -8.47,23.23 -0.02,5.32 2.21,10.61 6.67,15.75l2.7 3.12 -11.81 10.23 -60.46 -69.8 11.81 -10.23c2.15,2.09 4.12,4.17 5.99,6.33 3.91,4.52 6.97,7.08 9.09,7.68 4.14,1.19 7.57,0.58 10.25,-1.75 1.97,-1.71 5.7,-7.2 11.05,-16.46l26.47 -46.13 -61.33 -70.81 -55.65 21.46c-5.79,2.24 -9.48,4.1 -11.16,5.55 -1.87,1.62 -3.09,3.52 -3.65,5.69 -0.56,2.26 -0.46,4.52 0.33,6.78 0.73,2.3 2.77,5.34 6.02,9.08 2.2,2.54 3.95,4.65 5.22,6.32l-11.81 10.24 -50.85 -58.71 11.82 -10.23c4.7,5.43 8.64,8.9 11.83,10.35 3.14,1.49 6.65,2.05 10.59,1.75 3.89,-0.26 10.98,-2.28 21.2,-6l215.32 -79.89zm-131.04 70.62l52.47 60.58 58.28 -103.36 -110.75 42.78zm419.33 360.05l6.11 11.93 -62.21 54.2 -12.57 -12.84c14.93,-19.92 24.03,-40.93 27.2,-62.9 2.75,-18.19 0.03,-35.36 -8.23,-51.48 -4.98,-9.73 -11.22,-17.6 -18.64,-23.58 -7.45,-5.89 -14.91,-9.44 -22.42,-10.45 -7.48,-1.09 -14.13,-0.12 -19.84,2.81 -5.2,2.67 -9.43,6.69 -12.75,12.18 -3.34,5.49 -5.28,12.27 -5.84,20.27 -0.57,7.93 0.65,19.94 3.68,35.89l9.75 49.7c1.19,6.1 2.13,15.33 2.87,27.66 0.77,12.39 0.16,22.62 -1.89,30.75 -2.02,8.18 -5.76,15.66 -11.27,22.47 -5.48,6.88 -12.36,12.4 -20.62,16.63 -18.33,9.39 -38.45,9.55 -60.42,0.53 -21.97,-9.03 -39.48,-26.34 -52.54,-51.85 -6.72,-13.12 -10.83,-25.87 -12.37,-38.22 -1.51,-12.29 -0.52,-26.94 3.04,-43.97l-26.14 3.75 -5.97 -11.65 75.27 -57.97 10.88 13.71c-12.38,13.48 -21.56,27.6 -27.39,42.44 -5.91,14.81 -8.64,29.27 -8.34,43.4 0.39,14.15 3.59,27.08 9.59,38.79 8.17,15.95 20.13,27.46 35.8,34.5 13.14,5.84 25.13,5.98 36.05,0.39 10.01,-5.13 16.36,-12.95 19.07,-23.41 2.66,-10.57 1.9,-26.68 -2.23,-48.27l-9.32 -47.49c-5.17,-26.7 -4.98,-47.5 0.62,-62.36 5.6,-14.87 15.22,-25.79 28.73,-32.71 10.57,-5.41 21.96,-7.31 34.11,-5.75 12.16,1.56 24.54,7.21 37.17,16.95 12.61,9.68 22.83,22.15 30.66,37.42 6.55,12.79 10.63,26.18 12.15,40.19 1.12,9.85 0.62,19.75 -1.59,29.66l19.83 -1.3zm95.73 249.85c6.48,22.8 6.83,44.97 1.11,66.48 -6.14,23.28 -17.07,42.97 -32.86,59.02 -15.79,16.04 -36.11,27.56 -60.87,34.59 -38.33,10.88 -73.02,7.85 -104.02,-9.18 -30.93,-17.05 -51.68,-44.06 -62.2,-81.1 -11.74,-41.33 -6.47,-78.18 15.72,-110.51 18.12,-26.48 43.69,-44.38 76.71,-53.76 24.51,-6.96 48.1,-7.65 70.76,-2.06 22.59,5.54 42.47,16.95 59.58,34.16 17.1,17.2 29.16,38.03 36.07,62.36zm-19.45 5.46c-5.32,-18.71 -14.14,-33.51 -26.46,-44.55 -12.3,-10.98 -27.89,-18.17 -46.7,-21.62 -18.86,-3.37 -40.42,-1.6 -64.7,5.29 -23.17,6.58 -41.73,16.14 -55.61,28.68 -13.86,12.59 -23.18,26.79 -27.93,42.61 -4.74,15.88 -4.74,32.2 0.02,48.95 4.72,16.63 13.13,30.16 25.14,40.62 12.03,10.46 28.24,17.29 48.65,20.54 20.41,3.25 41.6,1.79 63.67,-4.47 22.38,-6.36 41.6,-16.38 57.81,-30.02 13.93,-11.69 23.01,-24.58 27.23,-38.59 4.27,-14.04 3.88,-29.84 -1.12,-47.45zm78.98 418.48l1.02 13.37 -84.66 30.08 -6.11 -16.74c19.13,-10.82 31.96,-18.87 38.37,-24.26 10.36,-8.76 18.29,-19.3 23.79,-31.64 5.5,-12.34 7.74,-25.64 6.65,-39.9 -1.27,-16.73 -6.95,-31.85 -16.95,-45.24 -10,-13.39 -23.99,-23.8 -41.89,-31.23 -17.97,-7.43 -37.75,-10.32 -59.37,-8.68 -22.18,1.69 -41.67,7.64 -58.36,17.83 -16.75,10.19 -29.21,23.19 -37.44,38.99 -8.23,15.86 -11.68,32.5 -10.35,49.99 1.25,16.47 7.22,32.98 17.91,49.44 10.75,16.52 25.07,30.47 42.95,41.8l-9.07 15.67c-11.99,-6.8 -22.25,-14.38 -30.85,-22.7 -13.81,-13.1 -24.3,-27.09 -31.54,-41.84 -7.17,-14.75 -11.49,-31.25 -12.87,-49.44 -3.06,-40.24 9.34,-74.08 37.15,-101.5 23.14,-22.66 51.75,-35.29 85.84,-37.89 25.03,-1.91 48.23,2.14 69.37,12.07 21.22,9.98 38.53,24.66 52.04,43.97 13.52,19.3 21.19,40.71 22.97,64.09 0.95,12.49 0.12,24.22 -2.49,35.19 -2.61,10.97 -7.29,22.29 -14,33.83l17.9 4.76zm-3.09 108.62l-7.52 98.86 -15.59 -1.19 0.58 -7.61c0.54,-7.1 -0.08,-12.37 -1.8,-15.68 -1.72,-3.38 -4.4,-5.95 -7.89,-7.67 -3.56,-1.74 -10.61,-3.04 -21.13,-3.84l-166.92 -12.69c-8.43,-0.64 -14.51,-0.27 -18.18,1.04 -3.67,1.31 -6.38,3.4 -8.24,6.13 -1.81,2.79 -3.03,7.92 -3.59,15.4l-0.58 7.61 -15.59 -1.19 7.52 -98.86 15.59 1.19 -0.62 8.18c-0.55,7.29 -0.13,12.54 1.36,15.72 1.42,3.17 3.66,5.51 6.72,7.14 3.07,1.57 9.16,2.73 18.23,3.42l170.34 12.96c9.69,0.73 16.27,0.53 19.67,-0.54 3.46,-1.14 6.1,-3.11 7.92,-6.03 1.81,-2.92 2.97,-8.06 3.52,-15.35l0.62 -8.18 15.59 1.18zm-34.29 268.14l-6.97 30.22 -229.7 29.55c-11.48,1.39 -19.44,3.66 -23.76,6.85 -4.31,3.11 -7.28,8.03 -8.8,14.66l-0.93 4.02 -15.23 -3.52 20.77 -89.98 15.23 3.52c-0.43,2.97 -0.95,5.79 -1.59,8.57 -1.34,5.83 -1.6,9.8 -0.85,11.88 1.47,4.06 3.98,6.46 7.46,7.26 2.54,0.59 9.18,0.36 19.81,-0.77l52.87 -5.8 21.07 -91.28 -50.14 -32.32c-5.23,-3.36 -8.9,-5.25 -11.06,-5.75 -2.42,-0.56 -4.66,-0.42 -6.75,0.4 -2.15,0.88 -3.92,2.3 -5.29,4.26 -1.43,1.95 -2.68,5.38 -3.8,10.21 -0.75,3.28 -1.42,5.93 -2.03,7.95l-15.23 -3.52 17.47 -75.68 15.23 3.52c-1.61,7 -2.11,12.24 -1.4,15.67 0.65,3.4 2.26,6.59 4.82,9.59 2.51,2.99 8.31,7.53 17.35,13.59l191.43 126.9zm-134.27 -64.27l-18.03 78.09 117.86 -13.82 -99.83 -64.28zm84.92 257.93l-36.79 93.3 -14.54 -5.73 3.43 -8.69c2.63,-6.69 3.85,-11.67 3.7,-14.94 -0.2,-3.29 -1.3,-6.05 -3.21,-8.31 -1.94,-2.19 -6.05,-4.58 -12.32,-7.05l-168.27 -66.34c-7.75,-3.05 -12.48,-4.58 -14.19,-4.56 -2.32,-0.18 -4.46,0.76 -6.26,2.71 -1.37,1.37 -3.56,5.91 -6.61,13.65l-5.16 13.07c-5.89,14.96 -8.89,28.8 -8.91,41.5 -0.02,12.7 2.49,24.69 7.59,35.85 5.07,11.22 14.34,23.76 27.77,37.53l-11.28 13.38 -65.02 -56.85 68.51 -173.77 14.55 5.73 -3.01 7.63c-2.92,7.39 -4.22,12.62 -3.92,15.67 0.3,3.05 1.65,5.85 4.05,8.43 2.48,2.55 7.34,5.29 14.62,8.16l163.89 64.62c8.4,3.31 14.27,4.87 17.6,4.75 3.41,-0.16 6.14,-1.2 8.34,-3.13 2.2,-1.94 4.82,-6.85 7.92,-14.71l3.01 -7.63 14.55 5.73z"/>
    </g>
   </g>
  </g>
 </g>
</svg>
