<?xml version="1.0" standalone="no"?>
<!DOCTYPE svg PUBLIC "-//W3C//DTD SVG 20010904//EN"
 "http://www.w3.org/TR/2001/REC-SVG-20010904/DTD/svg10.dtd">
<svg version="1.0" xmlns="http://www.w3.org/2000/svg"
 width="1000.000000pt" height="230.000000pt" viewBox="0 0 1000.000000 230.000000"
 preserveAspectRatio="xMidYMid meet">

<g transform="translate(0.000000,230.000000) scale(0.100000,-0.100000)"
fill="#FFFFFF" stroke="none">
<path d="M1124 2230 c-52 -32 -102 -111 -142 -226 -12 -33 -31 -84 -42 -114
-29 -75 -79 -217 -92 -260 -5 -19 -14 -39 -18 -45 -4 -5 -11 -29 -15 -52 -4
-24 -11 -43 -16 -43 -5 0 -9 -6 -9 -14 0 -17 -47 -171 -61 -201 -5 -11 -17
-49 -27 -84 -19 -71 -27 -77 -122 -86 -25 -3 -79 -9 -120 -14 -186 -22 -242 3
-196 90 29 57 29 78 -4 109 -39 36 -65 41 -111 19 -85 -42 -80 -165 11 -246
99 -89 164 -103 360 -78 60 7 109 9 114 4 6 -5 1 -35 -12 -76 -12 -38 -22 -74
-22 -80 0 -7 -4 -13 -9 -13 -5 0 -12 -19 -16 -42 -4 -24 -14 -52 -21 -63 -8
-11 -14 -27 -14 -37 0 -9 -6 -32 -14 -50 -8 -18 -22 -53 -31 -78 -9 -25 -21
-53 -26 -62 -5 -10 -9 -22 -9 -28 0 -6 -11 -33 -25 -62 -14 -28 -25 -58 -25
-65 0 -7 -4 -13 -10 -13 -5 0 -10 -6 -10 -14 0 -8 -20 -46 -44 -85 -64 -104
-72 -174 -21 -187 38 -9 62 4 98 54 39 54 97 172 97 196 0 9 5 16 10 16 6 0
10 7 10 16 0 9 6 30 14 47 32 77 39 94 47 122 9 34 35 110 48 140 5 11 21 61
36 110 14 50 33 106 41 125 7 19 18 54 23 78 17 81 50 104 166 115 17 2 37 7
44 11 7 4 15 6 18 3 3 -3 16 -2 29 4 14 5 50 12 82 15 31 3 59 7 62 9 3 1 14
-1 26 -5 22 -9 23 -13 45 -200 6 -47 12 -94 14 -105 2 -11 8 -49 13 -85 20
-127 23 -143 32 -186 19 -85 43 -139 75 -171 18 -18 37 -33 42 -33 6 0 25 -8
44 -17 42 -21 170 -29 225 -14 62 17 66 36 37 167 -31 141 -43 201 -48 244 -3
19 -8 51 -11 70 -19 100 -58 438 -69 600 -11 158 -17 230 -31 390 -9 96 -17
177 -19 181 -2 3 -7 19 -10 35 -9 45 -10 47 -32 90 -27 51 -98 123 -149 150
-76 41 -167 52 -210 24z m20 -390 c4 -52 9 -135 11 -185 3 -49 8 -117 11 -150
3 -33 7 -89 10 -125 2 -36 6 -88 9 -117 l6 -52 -38 -9 c-52 -13 -210 -42 -252
-47 -18 -3 -41 -7 -51 -10 -36 -11 -32 29 15 175 10 30 21 60 26 65 4 6 10 27
14 48 4 20 11 40 16 43 5 3 9 13 9 22 0 9 6 29 14 44 8 15 17 42 21 60 4 18
13 47 20 63 26 62 61 160 77 215 5 19 14 39 19 45 5 5 9 16 9 24 0 8 8 23 17
34 17 18 18 18 25 -15 3 -18 9 -76 12 -128z"/>
<path d="M8008 2055 c-83 -18 -181 -69 -233 -123 -43 -43 -111 -167 -158 -287
-17 -42 -86 -329 -92 -380 -2 -16 -7 -59 -11 -95 -4 -36 -7 -75 -7 -87 1 -13
-3 -23 -7 -23 -4 0 -10 -8 -14 -17 -3 -10 -15 -34 -27 -53 -12 -19 -37 -64
-56 -100 -60 -110 -145 -233 -206 -293 -50 -50 -63 -58 -90 -55 -26 2 -32 8
-38 33 -3 17 -16 77 -29 135 -14 65 -22 136 -21 185 1 87 1 86 90 153 42 32
171 162 171 172 0 5 6 15 13 22 7 7 27 40 44 74 61 116 48 221 -37 297 -78 70
-141 99 -219 99 -36 1 -75 -2 -86 -5 -11 -3 -27 -6 -36 -6 -25 -1 -160 -114
-195 -162 -17 -24 -44 -68 -59 -98 -29 -59 -73 -226 -80 -306 -9 -94 -16 -135
-31 -163 -7 -15 -14 -32 -14 -39 0 -7 -6 -27 -14 -45 -8 -18 -21 -49 -30 -70
-9 -20 -16 -39 -16 -42 0 -3 -9 -28 -21 -54 -12 -26 -25 -56 -29 -67 -54 -132
-120 -261 -154 -302 -26 -30 -42 -29 -51 4 -11 43 -14 283 -5 359 5 38 11 100
14 138 4 38 8 71 10 75 3 4 7 33 11 66 4 33 9 71 11 85 12 82 16 138 19 250 4
163 -6 198 -81 273 -32 31 -63 57 -70 57 -7 0 -14 3 -16 8 -1 4 -25 18 -53 31
-27 13 -58 27 -67 32 -10 5 -22 9 -28 9 -6 0 -33 11 -62 25 -28 14 -56 25 -61
25 -15 0 -52 48 -77 99 -13 25 -34 56 -47 68 -53 50 -158 49 -181 -3 -17 -35
-15 -47 13 -115 14 -33 24 -68 21 -77 -3 -9 -8 -51 -12 -92 -8 -88 -9 -100
-25 -205 -6 -44 -13 -93 -14 -110 -4 -38 -20 -128 -50 -275 -13 -63 -29 -148
-35 -187 -7 -40 -15 -73 -19 -73 -4 0 -15 -37 -25 -81 -10 -45 -23 -96 -31
-113 -7 -17 -21 -51 -30 -76 -16 -40 -28 -70 -69 -160 -6 -14 -13 -27 -16 -30
-3 -3 -11 -17 -19 -32 -24 -46 -105 -126 -135 -134 -22 -5 -31 -3 -40 12 -22
39 -31 123 -29 279 4 208 9 280 31 440 12 85 71 336 82 350 4 6 20 61 34 124
30 130 28 184 -9 242 -30 46 -115 89 -176 89 -88 0 -143 -58 -205 -212 -23
-57 -47 -104 -55 -105 -8 -2 -32 13 -54 32 -57 50 -55 49 -105 72 -58 28 -133
45 -189 44 -106 -3 -219 -104 -285 -256 -9 -22 -21 -47 -25 -55 -9 -16 -18
-60 -41 -190 -11 -63 -29 -112 -92 -250 -36 -79 -141 -221 -180 -243 -28 -16
-29 -16 -39 9 -17 46 4 409 31 541 7 32 13 69 14 83 2 14 16 88 33 165 58 264
60 293 24 371 -37 77 -139 132 -224 121 -59 -8 -85 -39 -140 -167 -8 -19 -27
-89 -42 -155 -15 -66 -31 -124 -35 -130 -4 -5 -11 -25 -15 -43 -8 -36 -93
-211 -140 -287 -17 -27 -37 -62 -44 -77 -18 -36 -113 -138 -129 -138 -6 0 -12
7 -12 15 0 24 61 279 70 290 14 19 31 111 32 171 1 88 -25 131 -100 164 -68
30 -124 27 -167 -11 -19 -17 -35 -37 -35 -45 0 -8 -4 -14 -9 -14 -5 0 -18 -24
-29 -53 -37 -93 -52 -168 -48 -256 3 -82 2 -85 -44 -175 -67 -131 -71 -138
-122 -201 -63 -77 -163 -173 -209 -199 -46 -26 -46 -26 -64 -6 -10 11 -16 20
-13 20 3 0 -5 37 -19 82 -13 46 -26 94 -29 108 -6 36 -6 328 0 338 3 5 8 34
10 65 6 65 55 211 91 273 50 85 126 144 146 113 5 -8 9 -36 10 -64 1 -27 2
-63 4 -80 1 -16 3 -40 4 -52 1 -24 30 -38 59 -29 40 13 68 153 45 228 -20 68
-71 109 -215 172 -45 20 -164 36 -221 30 -52 -6 -117 -37 -155 -72 -30 -29
-80 -106 -106 -162 -18 -41 -74 -274 -82 -340 -10 -97 -4 -293 11 -359 17 -69
20 -77 54 -151 42 -91 190 -220 252 -220 11 0 19 -4 19 -8 0 -13 80 -29 137
-27 112 5 247 126 365 330 16 28 32 58 35 68 3 9 9 17 14 17 5 0 9 6 9 13 0
19 39 97 49 97 4 0 13 -11 19 -24 21 -46 86 -108 139 -132 112 -51 159 -26
286 154 20 28 37 55 37 58 0 12 42 65 48 60 3 -4 4 -59 3 -124 -3 -193 40
-313 146 -402 101 -85 234 -120 311 -83 67 32 180 176 222 283 18 45 40 80 51
80 5 0 20 -19 35 -43 34 -55 96 -112 159 -144 38 -20 66 -26 117 -27 58 -1 71
3 109 29 24 17 61 58 84 92 35 55 64 79 66 56 0 -5 2 -37 4 -73 2 -36 8 -85
12 -110 4 -25 8 -49 8 -55 7 -49 64 -207 94 -255 31 -52 107 -127 155 -154 48
-27 110 -45 181 -51 92 -9 213 109 297 291 53 116 68 151 68 163 0 6 4 19 9
29 26 49 112 387 141 552 22 128 61 394 65 446 2 17 6 45 10 62 3 17 8 48 10
68 4 48 18 61 47 47 68 -33 138 -63 147 -63 6 0 14 -12 17 -26 7 -26 -1 -259
-11 -329 -8 -61 -14 -106 -19 -153 -3 -24 -7 -56 -11 -70 -3 -15 -7 -45 -10
-67 -2 -22 -9 -69 -14 -105 -5 -36 -9 -143 -9 -238 -1 -146 2 -182 19 -237 44
-142 90 -198 210 -253 80 -36 134 -44 208 -30 73 13 146 108 226 293 10 22 26
57 36 78 10 21 21 51 24 67 4 17 11 32 16 35 5 4 9 17 9 30 0 13 4 26 9 30 5
3 12 19 16 35 4 17 10 30 15 30 10 0 28 -22 29 -35 1 -15 91 -155 100 -155 5
0 20 -11 35 -25 66 -61 204 -103 298 -91 122 16 185 76 312 289 25 43 46 85
46 93 0 23 29 16 34 -8 3 -13 8 -66 11 -118 4 -52 10 -99 13 -105 4 -5 7 -15
8 -22 11 -69 66 -162 132 -220 114 -102 309 -154 413 -110 43 18 119 83 119
102 0 7 3 15 8 17 16 7 110 167 165 281 31 64 60 117 64 117 5 0 17 -17 28
-38 25 -49 110 -129 152 -144 18 -7 33 -15 33 -19 0 -11 80 -24 125 -20 51 4
107 46 164 123 60 82 67 79 75 -32 12 -153 53 -309 97 -371 10 -15 19 -31 19
-37 0 -17 57 -80 105 -117 142 -108 305 -110 387 -4 12 17 28 36 33 42 25 29
66 97 92 152 15 33 30 62 33 65 7 7 31 70 37 97 3 13 9 23 13 23 5 0 11 18 15
40 4 22 10 42 15 45 4 3 11 22 15 42 4 21 10 40 15 43 4 3 19 52 33 110 14 58
33 123 41 145 8 22 17 61 21 87 7 45 6 47 -18 53 -37 10 -60 -1 -73 -32 -13
-32 -60 -183 -70 -227 -4 -16 -13 -41 -20 -55 -8 -14 -14 -34 -14 -43 0 -9 -4
-19 -9 -22 -5 -3 -12 -21 -15 -40 -4 -18 -18 -55 -31 -82 -14 -27 -25 -56 -25
-64 0 -8 -9 -26 -20 -40 -11 -14 -20 -30 -20 -37 0 -21 -65 -123 -122 -193
-20 -24 -78 -70 -89 -70 -15 0 -37 59 -44 115 -12 103 1 472 20 575 3 14 7 45
10 70 4 40 22 111 110 450 28 107 31 166 11 214 -15 37 -82 96 -108 96 -9 0
-20 5 -23 10 -12 19 -105 11 -138 -12 -38 -26 -71 -63 -85 -92 -42 -90 -62
-139 -62 -155 0 -10 -9 -26 -20 -36 -19 -17 -21 -17 -47 10 -15 15 -44 36 -63
46 -19 11 -42 23 -50 28 -82 50 -219 64 -288 31 -49 -25 -142 -115 -142 -140
0 -5 -4 -10 -9 -10 -9 0 -30 -41 -74 -141 -14 -33 -27 -86 -32 -128 -2 -25
-35 -133 -51 -168 -8 -17 -14 -36 -14 -42 0 -6 -4 -19 -9 -29 -4 -9 -32 -66
-62 -127 -29 -60 -57 -114 -61 -120 -4 -5 -28 -38 -53 -72 -51 -69 -139 -153
-162 -153 -8 0 -21 17 -29 37 -8 21 -19 47 -24 58 -24 54 -38 146 -46 290 -3
61 -7 115 -9 122 -2 6 16 29 41 50 161 137 275 296 354 493 12 30 29 69 36 87
8 17 14 37 14 45 0 8 4 18 9 24 14 13 51 179 51 224 0 78 -20 140 -59 180 -80
82 -201 113 -333 85z m274 -235 c0 -78 -27 -216 -43 -225 -5 -4 -9 -13 -9 -22
0 -23 -70 -175 -130 -281 -81 -143 -164 -248 -179 -224 -7 12 -4 36 27 187 14
70 51 194 68 232 8 17 14 36 14 42 0 10 22 66 41 103 5 10 9 25 9 33 0 8 5 15
10 15 6 0 10 7 10 15 0 8 4 23 9 33 5 9 23 47 40 84 16 37 46 84 67 104 l37
37 15 -28 c10 -19 15 -56 14 -105z m-1003 -261 c39 -111 -35 -279 -184 -420
-31 -30 -55 -37 -55 -18 0 21 31 134 46 166 7 17 14 40 14 50 0 10 4 23 8 28
5 6 17 33 27 60 23 62 71 142 93 155 28 16 40 11 51 -21z m-2612 -133 c22 -17
51 -49 63 -71 l22 -40 -21 -81 c-11 -44 -25 -114 -31 -154 -11 -76 -37 -141
-74 -181 -11 -13 -41 -49 -66 -79 -25 -30 -63 -71 -85 -92 l-40 -37 -7 25 c-9
33 -1 114 31 339 11 75 56 264 78 330 32 94 51 100 130 41z m4313 -27 c52 -31
98 -85 105 -122 6 -31 -51 -300 -75 -356 -17 -38 -99 -141 -168 -211 -57 -58
-65 -63 -76 -48 -9 12 -10 36 -5 80 4 35 10 94 13 132 3 37 9 72 11 77 3 4 8
31 11 59 6 66 61 296 79 337 8 17 15 34 15 38 0 10 32 34 45 35 6 0 26 -9 45
-21z"/>
</g>
</svg>
